<svg version="1.1" id="Layer_1" xmlns="http://www.w3.org/2000/svg" xmlns:xlink="http://www.w3.org/1999/xlink" x="0px" y="0px"
	 width="100%" viewBox="0 0 512 512" enable-background="new 0 0 512 512" xml:space="preserve">
<path fill="#000101" opacity="1.000000" stroke="none" 
	d="
M513.000000,199.000000 
	C513.000000,303.974487 513.000000,408.448975 513.000000,512.961731 
	C342.400513,512.961731 171.800995,512.961731 1.100744,512.961731 
	C1.100744,342.442200 1.100744,171.884338 1.100744,1.163229 
	C171.666534,1.163229 342.333252,1.163229 513.000000,1.163229 
	C513.000000,66.865631 513.000000,132.682816 513.000000,199.000000 
M408.972351,39.066280 
	C408.972351,31.158306 408.972351,23.250330 408.972351,15.560933 
	C300.212036,15.560933 192.193176,15.560933 84.302605,15.560933 
	C84.302605,176.810822 84.302605,337.680969 84.302605,498.566040 
	C86.741051,498.566040 88.873978,498.566040 91.920822,498.786469 
	C197.478378,498.786469 303.035919,498.786469 408.715607,498.786469 
	C408.715607,422.613403 408.715607,346.934265 408.715607,270.998474 
	C392.769958,270.998474 377.128387,270.747528 361.499786,271.088928 
	C351.503754,271.307312 344.132660,267.620880 339.158051,258.071259 
	C335.807800,245.360153 339.512482,237.640289 353.000244,231.152527 
	C371.570496,231.152527 390.140747,231.152527 409.025635,231.152527 
	C409.025635,228.415634 409.025635,226.770355 409.025635,225.125076 
	C409.026031,165.072159 409.028046,105.019241 409.018585,44.966324 
	C409.018311,43.308514 408.894531,41.650719 408.972351,39.066280 
M39.962849,273.500000 
	C39.962849,348.442627 39.962849,423.385223 39.962849,498.490417 
	C52.220921,498.490417 63.942299,498.490417 75.639236,498.490417 
	C75.639236,337.277191 75.639236,176.392609 75.639236,15.427965 
	C63.684792,15.427965 52.089237,15.427965 39.962849,15.427965 
	C39.962849,101.282433 39.962849,186.891220 39.962849,273.500000 
M460.943542,267.500000 
	C460.943542,258.049591 460.943542,248.599197 460.943542,239.044357 
	C452.929230,239.044357 445.398468,239.044357 437.959045,239.044357 
	C437.959045,291.277405 437.959045,343.133453 437.959045,395.049347 
	C445.715363,395.049347 453.119812,395.049347 460.943542,395.049347 
	C460.943542,352.678772 460.943542,310.589386 460.943542,267.500000 
M450.481995,125.818398 
	C446.367371,125.818398 442.252747,125.818398 438.072113,125.818398 
	C438.072113,161.029312 438.072113,195.661240 438.072113,230.288086 
	C445.909607,230.288086 453.296570,230.288086 460.648682,230.288086 
	C460.648682,195.343414 460.648682,160.795425 460.648682,125.818329 
	C457.397400,125.818329 454.433411,125.818329 450.481995,125.818398 
M392.498962,238.669769 
	C380.853943,238.692001 369.205231,238.545685 357.565338,238.801666 
	C350.913971,238.947937 346.243103,243.854065 345.968994,250.167313 
	C345.686920,256.664246 350.260651,262.647003 356.827271,262.779449 
	C374.075409,263.127350 391.335175,262.897003 408.723511,262.897003 
	C408.723511,254.684097 408.723511,246.803238 408.723511,238.669754 
	C403.449310,238.669754 398.473602,238.669754 392.498962,238.669769 
M443.994171,419.612457 
	C445.646454,424.780426 447.298737,429.948395 449.287964,436.170258 
	C452.880249,424.628723 456.105927,414.265015 459.453186,403.510620 
	C452.328979,403.510620 445.910645,403.510620 438.985229,403.510620 
	C440.647827,408.785370 442.230988,413.808136 443.994171,419.612457 
z"/>
<path fill="#F8E0A6" opacity="1.000000" stroke="none" 
	d="
M352.068665,231.168015 
	C339.512482,237.640289 335.807800,245.360153 338.924561,258.679962 
	C338.315979,259.835846 337.867279,260.346649 337.576447,260.935394 
	C323.164551,290.107666 305.922760,317.554932 286.532593,344.073181 
	C284.741516,344.188934 283.409149,344.218689 282.076752,344.218750 
	C238.597427,344.221191 195.118057,344.202820 151.638809,344.258545 
	C148.524826,344.262543 144.101807,343.110260 143.960297,348.156250 
	C143.800171,353.866119 148.627426,352.187897 151.752533,352.217773 
	C166.244324,352.356110 180.738205,352.259308 195.231277,352.283234 
	C223.213455,352.329437 251.195602,352.400330 279.099976,352.836975 
	C277.133392,355.860657 275.322784,358.568542 273.339447,361.143402 
	C269.264160,366.434174 265.096375,371.653748 260.509705,376.999786 
	C224.108261,377.118134 188.163727,377.107056 152.219528,377.213928 
	C148.894882,377.223785 143.822189,375.636047 143.981033,381.463196 
	C144.130951,386.962585 149.055206,385.117035 152.151688,385.132751 
	C185.096756,385.299896 218.042587,385.313232 250.902679,385.684753 
	C246.108932,391.260651 241.430969,396.548157 236.680206,401.769470 
	C234.173981,404.523987 231.540863,407.163055 228.505951,409.939270 
	C202.440918,410.038910 176.834961,410.050262 151.229034,410.076508 
	C149.738113,410.078033 147.937164,409.705200 146.836655,410.394501 
	C145.523453,411.217041 144.016541,413.027252 144.066177,414.354523 
	C144.113403,415.617401 145.867615,417.142273 147.231445,417.922363 
	C148.240936,418.499786 149.827927,418.080231 151.157684,418.083313 
	C173.102844,418.134216 195.048004,418.181671 216.927948,418.555481 
	C214.963364,420.887085 213.241409,423.106354 211.132523,424.860474 
	C203.818558,430.944244 196.370163,436.866425 188.511856,442.927551 
	C175.279999,443.014465 162.509155,443.044769 149.738434,443.018066 
	C146.694458,443.011688 143.792725,443.229095 143.898453,447.242554 
	C143.996643,450.969360 146.809647,451.048676 149.621017,451.053650 
	C158.407669,451.069122 167.194214,451.147736 175.784531,451.462921 
	C161.809814,460.270142 148.332825,469.360443 134.167694,477.208801 
	C120.142044,484.979919 105.422241,491.498230 91.006912,498.566040 
	C88.873978,498.566040 86.741051,498.566040 84.302605,498.566040 
	C84.302605,337.680969 84.302605,176.810822 84.302605,15.560933 
	C192.193176,15.560933 300.212036,15.560933 408.972351,15.560933 
	C408.972351,23.250330 408.972351,31.158306 408.679504,39.828178 
	C402.909973,64.840652 398.319458,89.335373 391.722900,113.277405 
	C384.189575,140.619553 375.118530,167.551636 366.217072,194.497208 
	C362.112274,206.922760 356.821655,218.956589 352.068665,231.168015 
M336.904327,193.499969 
	C336.904266,181.837341 336.926453,170.174652 336.894684,158.512115 
	C336.879089,152.797714 335.977600,151.941360 330.165833,151.917282 
	C324.501129,151.893799 318.836273,151.912140 313.171478,151.912125 
	C300.215851,151.912125 287.260254,151.912125 273.797607,151.912125 
	C273.797607,149.706696 273.797607,147.925797 273.797607,146.144897 
	C273.797424,129.150528 273.740662,112.155830 273.836639,95.162003 
	C273.860779,90.883850 272.506104,88.711327 267.800018,88.748688 
	C249.473923,88.894196 231.145355,88.888321 212.819138,88.749336 
	C208.177795,88.714149 206.756241,90.702866 206.802521,95.099159 
	C206.960312,110.092537 206.862686,125.088600 206.862564,140.083633 
	C206.862534,143.872208 206.862564,147.660797 206.862564,151.912109 
	C204.758423,151.912109 203.138168,151.912109 201.517929,151.912109 
	C184.523560,151.912155 167.529160,151.901871 150.534805,151.917755 
	C144.435898,151.923462 143.764038,152.539551 143.755005,158.375946 
	C143.727188,176.369949 143.726532,194.364044 143.756241,212.358047 
	C143.765686,218.074524 144.614105,218.869965 150.569412,218.878876 
	C166.064240,218.902054 181.559128,218.886765 197.054001,218.886826 
	C200.175873,218.886841 203.297745,218.886810 206.862564,218.886810 
	C206.862564,220.989456 206.862564,222.611816 206.862564,224.234161 
	C206.862564,241.228531 206.850601,258.222900 206.869110,275.217285 
	C206.875565,281.135437 207.656738,281.956421 213.415192,281.964752 
	C231.242569,281.990448 249.070053,281.986481 266.897461,281.966370 
	C272.753479,281.959747 273.782562,280.908112 273.790100,274.911530 
	C273.811432,257.917175 273.791565,240.922775 273.807404,223.928421 
	C273.808899,222.331635 273.948181,220.734985 274.035339,218.886658 
	C293.072083,218.886658 311.709167,218.813232 330.344940,218.938522 
	C334.979156,218.969666 337.111420,217.281403 336.952057,212.492371 
	C336.752716,206.500992 336.904266,200.497940 336.904327,193.499969 
z"/>
<path fill="#E9BC8B" opacity="1.000000" stroke="none" 
	d="
M228.965027,409.854248 
	C231.540863,407.163055 234.173981,404.523987 236.680206,401.769470 
	C241.430969,396.548157 246.108932,391.260651 251.362564,385.591797 
	C277.365051,385.188843 302.822174,385.229279 328.278992,385.157654 
	C331.523376,385.148529 336.433868,386.580200 336.622345,381.508789 
	C336.825287,376.047302 331.797577,377.207642 328.326721,377.186127 
	C305.873657,377.046875 283.420074,376.987915 260.966675,376.902618 
	C265.096375,371.653748 269.264160,366.434174 273.339447,361.143402 
	C275.322784,358.568542 277.133392,355.860657 279.547241,352.742584 
	C288.535278,352.276703 296.998199,352.283264 305.461151,352.285126 
	C314.090057,352.286987 322.728699,352.501068 331.340179,352.113464 
	C333.225037,352.028625 336.329285,350.005920 336.574219,348.501526 
	C337.099884,345.272949 334.256989,344.214081 331.273163,344.222717 
	C329.945648,344.226532 328.618073,344.226257 327.290588,344.218292 
	C313.857483,344.137787 300.424408,344.055237 286.991302,343.973297 
	C305.922760,317.554932 323.164551,290.107666 337.576447,260.935394 
	C337.867279,260.346649 338.315979,259.835846 338.989838,259.089813 
	C344.132660,267.620880 351.503754,271.307312 361.499786,271.088928 
	C377.128387,270.747528 392.769958,270.998474 408.715607,270.998474 
	C408.715607,346.934265 408.715607,422.613403 408.715607,498.786469 
	C303.035919,498.786469 197.478378,498.786469 91.463867,498.676270 
	C105.422241,491.498230 120.142044,484.979919 134.167694,477.208801 
	C148.332825,469.360443 161.809814,460.270142 176.248444,451.386139 
	C227.524719,451.045135 278.140808,451.043213 328.756897,451.033020 
	C330.419464,451.032684 332.280243,451.395569 333.686493,450.772186 
	C334.983124,450.197418 336.675720,448.457703 336.595306,447.346863 
	C336.490784,445.903168 335.063232,444.161316 333.720917,443.324158 
	C332.620819,442.638092 330.812469,443.041443 329.318024,443.040833 
	C304.842499,443.031097 280.366913,443.057739 255.891434,443.026886 
	C233.585220,442.998779 211.279083,442.911377 188.972916,442.850098 
	C196.370163,436.866425 203.818558,430.944244 211.132523,424.860474 
	C213.241409,423.106354 214.963364,420.887085 217.389099,418.471069 
	C255.533463,418.068756 293.151459,418.063599 330.769379,418.109497 
	C333.646393,418.113007 336.575439,417.876343 336.714752,414.417480 
	C336.863617,410.720917 333.973389,410.040741 330.814270,410.050201 
	C316.166656,410.094147 301.518799,410.096008 286.871155,410.062225 
	C267.569031,410.017700 248.267075,409.925781 228.965027,409.854248 
z"/>
<path fill="#D3A06C" opacity="1.000000" stroke="none" 
	d="
M39.962849,273.000000 
	C39.962849,186.891220 39.962849,101.282433 39.962849,15.427965 
	C52.089237,15.427965 63.684792,15.427965 75.639236,15.427965 
	C75.639236,176.392609 75.639236,337.277191 75.639236,498.490417 
	C63.942299,498.490417 52.220921,498.490417 39.962849,498.490417 
	C39.962849,423.385223 39.962849,348.442627 39.962849,273.000000 
z"/>
<path fill="#E9BC8B" opacity="1.000000" stroke="none" 
	d="
M352.534454,231.160278 
	C356.821655,218.956589 362.112274,206.922760 366.217072,194.497208 
	C375.118530,167.551636 384.189575,140.619553 391.722900,113.277405 
	C398.319458,89.335373 402.909973,64.840652 408.607513,40.291496 
	C408.894531,41.650719 409.018311,43.308514 409.018585,44.966324 
	C409.028046,105.019241 409.026031,165.072159 409.025635,225.125076 
	C409.025635,226.770355 409.025635,228.415634 409.025635,231.152527 
	C390.140747,231.152527 371.570496,231.152527 352.534454,231.160278 
z"/>
<path fill="#B5C0CD" opacity="1.000000" stroke="none" 
	d="
M460.943542,268.000000 
	C460.943542,310.589386 460.943542,352.678772 460.943542,395.049347 
	C453.119812,395.049347 445.715363,395.049347 437.959045,395.049347 
	C437.959045,343.133453 437.959045,291.277405 437.959045,239.044357 
	C445.398468,239.044357 452.929230,239.044357 460.943542,239.044357 
	C460.943542,248.599197 460.943542,258.049591 460.943542,268.000000 
z"/>
<path fill="#148BDE" opacity="1.000000" stroke="none" 
	d="
M450.975708,125.818359 
	C454.433411,125.818329 457.397400,125.818329 460.648682,125.818329 
	C460.648682,160.795425 460.648682,195.343414 460.648682,230.288086 
	C453.296570,230.288086 445.909607,230.288086 438.072113,230.288086 
	C438.072113,195.661240 438.072113,161.029312 438.072113,125.818398 
	C442.252747,125.818398 446.367371,125.818398 450.975708,125.818359 
z"/>
<path fill="#B6C1CE" opacity="1.000000" stroke="none" 
	d="
M392.998444,238.669769 
	C398.473602,238.669754 403.449310,238.669754 408.723511,238.669754 
	C408.723511,246.803238 408.723511,254.684097 408.723511,262.897003 
	C391.335175,262.897003 374.075409,263.127350 356.827271,262.779449 
	C350.260651,262.647003 345.686920,256.664246 345.968994,250.167313 
	C346.243103,243.854065 350.913971,238.947937 357.565338,238.801666 
	C369.205231,238.545685 380.853943,238.692001 392.998444,238.669769 
z"/>
<path fill="#EDD59E" opacity="1.000000" stroke="none" 
	d="
M443.904175,419.221680 
	C442.230988,413.808136 440.647827,408.785370 438.985229,403.510620 
	C445.910645,403.510620 452.328979,403.510620 459.453186,403.510620 
	C456.105927,414.265015 452.880249,424.628723 449.287964,436.170258 
	C447.298737,429.948395 445.646454,424.780426 443.904175,419.221680 
z"/>
<path fill="#060403" opacity="1.000000" stroke="none" 
	d="
M336.904327,193.999939 
	C336.904266,200.497940 336.752716,206.500992 336.952057,212.492371 
	C337.111420,217.281403 334.979156,218.969666 330.344940,218.938522 
	C311.709167,218.813232 293.072083,218.886658 274.035339,218.886658 
	C273.948181,220.734985 273.808899,222.331635 273.807404,223.928421 
	C273.791565,240.922775 273.811432,257.917175 273.790100,274.911530 
	C273.782562,280.908112 272.753479,281.959747 266.897461,281.966370 
	C249.070053,281.986481 231.242569,281.990448 213.415192,281.964752 
	C207.656738,281.956421 206.875565,281.135437 206.869110,275.217285 
	C206.850601,258.222900 206.862564,241.228531 206.862564,224.234161 
	C206.862564,222.611816 206.862564,220.989456 206.862564,218.886810 
	C203.297745,218.886810 200.175873,218.886841 197.054001,218.886826 
	C181.559128,218.886765 166.064240,218.902054 150.569412,218.878876 
	C144.614105,218.869965 143.765686,218.074524 143.756241,212.358047 
	C143.726532,194.364044 143.727188,176.369949 143.755005,158.375946 
	C143.764038,152.539551 144.435898,151.923462 150.534805,151.917755 
	C167.529160,151.901871 184.523560,151.912155 201.517929,151.912109 
	C203.138168,151.912109 204.758423,151.912109 206.862564,151.912109 
	C206.862564,147.660797 206.862534,143.872208 206.862564,140.083633 
	C206.862686,125.088600 206.960312,110.092537 206.802521,95.099159 
	C206.756241,90.702866 208.177795,88.714149 212.819138,88.749336 
	C231.145355,88.888321 249.473923,88.894196 267.800018,88.748688 
	C272.506104,88.711327 273.860779,90.883850 273.836639,95.162003 
	C273.740662,112.155830 273.797424,129.150528 273.797607,146.144897 
	C273.797607,147.925797 273.797607,149.706696 273.797607,151.912125 
	C287.260254,151.912125 300.215851,151.912125 313.171478,151.912125 
	C318.836273,151.912140 324.501129,151.893799 330.165833,151.917282 
	C335.977600,151.941360 336.879089,152.797714 336.894684,158.512115 
	C336.926453,170.174652 336.904266,181.837341 336.904327,193.999939 
M265.746552,155.969803 
	C265.746552,136.375046 265.746552,116.780304 265.746552,97.116516 
	C248.505402,97.116516 231.923569,97.116516 214.893005,97.116516 
	C214.893005,99.180984 214.893021,100.972992 214.893005,102.765007 
	C214.892944,119.588821 214.911758,136.412674 214.882141,153.236435 
	C214.872269,158.835251 213.771606,159.916199 208.143906,159.930573 
	C196.317352,159.960770 184.490646,159.939819 172.664001,159.939850 
	C165.876205,159.939865 159.088409,159.939850 152.149902,159.939850 
	C152.149902,177.108429 152.149902,193.797226 152.149902,210.736191 
	C172.307281,210.736191 192.097992,210.736191 212.545380,211.159546 
	C213.329269,213.385605 214.767395,215.604218 214.792847,217.838913 
	C214.984283,234.647720 214.897537,251.459702 214.897781,268.270691 
	C214.897797,270.032227 214.897766,271.793793 214.897766,273.648621 
	C232.146713,273.648621 248.699753,273.648621 265.781311,273.648621 
	C265.781311,271.564728 265.781250,269.775909 265.781311,267.987091 
	C265.781708,251.176102 265.766022,234.365097 265.791107,217.554153 
	C265.800110,211.517426 266.423645,210.882523 272.335724,210.874100 
	C289.313141,210.849899 306.290588,210.864944 323.268036,210.864578 
	C325.021088,210.864532 326.774170,210.864563 328.564270,210.864563 
	C328.564270,193.522095 328.564270,176.960144 328.564270,159.942291 
	C326.454987,159.942291 324.659515,159.942322 322.864014,159.942291 
	C306.053040,159.941956 289.240326,160.056076 272.433075,159.805786 
	C270.166840,159.772049 267.927917,157.904953 265.746552,155.969803 
z"/>
<path fill="#0A0907" opacity="1.000000" stroke="none" 
	d="
M286.532593,344.073181 
	C300.424408,344.055237 313.857483,344.137787 327.290588,344.218292 
	C328.618073,344.226257 329.945648,344.226532 331.273163,344.222717 
	C334.256989,344.214081 337.099884,345.272949 336.574219,348.501526 
	C336.329285,350.005920 333.225037,352.028625 331.340179,352.113464 
	C322.728699,352.501068 314.090057,352.286987 305.461151,352.285126 
	C296.998199,352.283264 288.535278,352.276703 279.625061,352.366577 
	C251.195602,352.400330 223.213455,352.329437 195.231277,352.283234 
	C180.738205,352.259308 166.244324,352.356110 151.752533,352.217773 
	C148.627426,352.187897 143.800171,353.866119 143.960297,348.156250 
	C144.101807,343.110260 148.524826,344.262543 151.638809,344.258545 
	C195.118057,344.202820 238.597427,344.221191 282.076752,344.218750 
	C283.409149,344.218689 284.741516,344.188934 286.532593,344.073181 
z"/>
<path fill="#080705" opacity="1.000000" stroke="none" 
	d="
M260.509705,376.999786 
	C283.420074,376.987915 305.873657,377.046875 328.326721,377.186127 
	C331.797577,377.207642 336.825287,376.047302 336.622345,381.508789 
	C336.433868,386.580200 331.523376,385.148529 328.278992,385.157654 
	C302.822174,385.229279 277.365051,385.188843 251.448120,385.275909 
	C218.042587,385.313232 185.096756,385.299896 152.151688,385.132751 
	C149.055206,385.117035 144.130951,386.962585 143.981033,381.463196 
	C143.822189,375.636047 148.894882,377.223785 152.219528,377.213928 
	C188.163727,377.107056 224.108261,377.118134 260.509705,376.999786 
z"/>
<path fill="#040403" opacity="1.000000" stroke="none" 
	d="
M228.505951,409.939270 
	C248.267075,409.925781 267.569031,410.017700 286.871155,410.062225 
	C301.518799,410.096008 316.166656,410.094147 330.814270,410.050201 
	C333.973389,410.040741 336.863617,410.720917 336.714752,414.417480 
	C336.575439,417.876343 333.646393,418.113007 330.769379,418.109497 
	C293.151459,418.063599 255.533463,418.068756 217.454315,418.145508 
	C195.048004,418.181671 173.102844,418.134216 151.157684,418.083313 
	C149.827927,418.080231 148.240936,418.499786 147.231445,417.922363 
	C145.867615,417.142273 144.113403,415.617401 144.066177,414.354523 
	C144.016541,413.027252 145.523453,411.217041 146.836655,410.394501 
	C147.937164,409.705200 149.738113,410.078033 151.229034,410.076508 
	C176.834961,410.050262 202.440918,410.038910 228.505951,409.939270 
z"/>
<path fill="#020201" opacity="1.000000" stroke="none" 
	d="
M188.511856,442.927582 
	C211.279083,442.911377 233.585220,442.998779 255.891434,443.026886 
	C280.366913,443.057739 304.842499,443.031097 329.318024,443.040833 
	C330.812469,443.041443 332.620819,442.638092 333.720917,443.324158 
	C335.063232,444.161316 336.490784,445.903168 336.595306,447.346863 
	C336.675720,448.457703 334.983124,450.197418 333.686493,450.772186 
	C332.280243,451.395569 330.419464,451.032684 328.756897,451.033020 
	C278.140808,451.043213 227.524719,451.045135 176.444702,451.125122 
	C167.194214,451.147736 158.407669,451.069122 149.621017,451.053650 
	C146.809647,451.048676 143.996643,450.969360 143.898453,447.242554 
	C143.792725,443.229095 146.694458,443.011688 149.738434,443.018066 
	C162.509155,443.044769 175.279999,443.014465 188.511856,442.927582 
z"/>
<path fill="#CC2C59" opacity="1.000000" stroke="none" 
	d="
M265.676331,156.886780 
	C267.927917,157.904953 270.166840,159.772049 272.433075,159.805786 
	C289.240326,160.056076 306.053040,159.941956 322.864014,159.942291 
	C324.659515,159.942322 326.454987,159.942291 328.564270,159.942291 
	C328.564270,176.960144 328.564270,193.522095 328.564270,210.864563 
	C326.774170,210.864563 325.021088,210.864532 323.268036,210.864578 
	C306.290588,210.864944 289.313141,210.849899 272.335724,210.874100 
	C266.423645,210.882523 265.800110,211.517426 265.791107,217.554153 
	C265.766022,234.365097 265.781708,251.176102 265.781311,267.987091 
	C265.781250,269.775909 265.781311,271.564728 265.781311,273.648621 
	C248.699753,273.648621 232.146713,273.648621 214.897766,273.648621 
	C214.897766,271.793793 214.897797,270.032227 214.897781,268.270691 
	C214.897537,251.459702 214.984283,234.647720 214.792847,217.838913 
	C214.767395,215.604218 213.329269,213.385605 212.221573,210.521362 
	C212.746857,181.584427 236.500351,158.176407 265.676331,156.886780 
z"/>
<path fill="#FB5968" opacity="1.000000" stroke="none" 
	d="
M265.711426,156.428284 
	C236.500351,158.176407 212.746857,181.584427 211.893219,210.309692 
	C192.097992,210.736191 172.307281,210.736191 152.149902,210.736191 
	C152.149902,193.797226 152.149902,177.108429 152.149902,159.939850 
	C159.088409,159.939850 165.876205,159.939865 172.664001,159.939850 
	C184.490646,159.939819 196.317352,159.960770 208.143906,159.930573 
	C213.771606,159.916199 214.872269,158.835251 214.882141,153.236435 
	C214.911758,136.412674 214.892944,119.588821 214.893005,102.765007 
	C214.893021,100.972992 214.893005,99.180984 214.893005,97.116516 
	C231.923569,97.116516 248.505402,97.116516 265.746552,97.116516 
	C265.746552,116.780304 265.746552,136.375046 265.711426,156.428284 
z"/>
</svg>