<svg version="1.1" id="Layer_1" xmlns="http://www.w3.org/2000/svg" xmlns:xlink="http://www.w3.org/1999/xlink" x="0px" y="0px"
	 width="100%" viewBox="0 0 512 512" enable-background="new 0 0 512 512" xml:space="preserve">
<path fill="#000000" opacity="1.000000" stroke="none" 
	d="
M276.000000,1.000001 
	C354.949310,1.000000 433.898590,1.000000 512.923950,1.000000 
	C512.923950,171.666641 512.923950,342.333313 512.923950,513.000000 
	C510.649231,513.000000 508.317383,513.000000 505.202332,512.695068 
	C508.171082,510.057190 509.994965,506.474487 509.957855,502.264221 
	C509.730072,476.403198 510.061127,450.507690 508.771149,424.695343 
	C507.790558,405.075104 493.952118,390.967651 476.993958,385.264954 
	C462.996796,380.558075 448.351135,377.779480 433.631561,374.072632 
	C430.311401,371.614471 425.612335,369.717743 424.777374,366.738190 
	C423.306946,361.490845 424.152435,355.582031 424.179138,349.950928 
	C424.181366,349.485168 425.341858,349.038818 425.945557,348.559906 
	C432.452515,343.397705 439.401215,338.694275 445.363007,332.964264 
	C456.238373,322.511658 461.643982,308.880554 462.749207,294.263458 
	C463.876099,279.359619 462.872833,264.294678 462.874084,248.811432 
	C463.378479,230.712296 464.145630,213.047760 454.150757,197.131195 
	C455.111237,196.583878 455.666443,196.259796 456.228638,195.948288 
	C468.327637,189.244415 473.782959,178.353622 473.831421,165.147385 
	C473.868896,154.917877 469.102112,146.319687 461.127899,139.517197 
	C451.341553,131.168869 434.444733,129.248032 423.537476,135.972748 
	C413.163239,142.233749 406.402344,150.547684 405.507874,162.930588 
	C396.717712,163.031509 388.348022,163.100403 379.611511,163.261475 
	C364.803375,166.619019 352.091003,173.154556 342.318085,184.374741 
	C337.659546,189.723175 334.092285,196.022156 330.021973,201.429977 
	C330.012207,195.655304 330.013397,190.341217 330.009735,185.027130 
	C330.001923,173.674072 325.177399,164.822845 316.364258,158.033752 
	C333.390289,142.717682 343.324371,124.221497 346.188904,101.577171 
	C348.399933,84.098557 345.902161,67.563286 338.369049,52.012192 
	C325.917603,26.307886 305.616699,9.772335 277.674438,2.919192 
	C276.999969,2.753778 276.553040,1.660509 276.000000,1.000001 
z"/>
<path fill="#000000" opacity="1.000000" stroke="none" 
	d="
M9.000004,513.000000 
	C6.334863,513.000000 3.669726,513.000000 1.003442,513.000000 
	C1.002295,342.432770 1.002295,171.865524 1.002295,1.000000 
	C79.688431,1.000000 158.377228,1.000000 237.826981,1.340172 
	C238.091797,2.095508 237.649353,2.774011 237.091782,2.887623 
	C219.614655,6.448809 205.073441,15.075041 192.643082,27.781359 
	C171.236099,49.663555 163.673492,76.014458 168.240250,105.680809 
	C171.464859,126.628319 181.494415,144.400345 197.786835,158.468491 
	C190.934662,163.045105 186.288040,169.131439 185.187805,176.850494 
	C184.008392,185.125046 184.253815,193.602707 183.558899,201.850708 
	C177.317902,188.684860 168.086472,178.505661 155.773880,171.435333 
	C141.101547,163.009964 125.176430,160.134735 108.392708,162.831757 
	C107.289940,152.528412 101.874802,143.241104 94.039398,138.004990 
	C78.242844,127.448753 58.093334,130.715454 46.628563,145.978058 
	C41.589977,152.685730 39.183167,160.681046 40.184170,168.908524 
	C41.684525,181.240295 47.798073,191.031189 59.063438,197.380310 
	C57.656231,201.029190 56.333416,204.306503 54.996517,207.578064 
	C49.381721,221.318283 51.155834,235.726013 51.091118,250.439850 
	C51.346912,266.978912 50.382401,283.207886 52.300503,299.088654 
	C55.119678,322.429840 69.705353,338.215057 89.997055,349.677979 
	C89.997055,352.971954 89.996758,356.628265 89.997108,360.284576 
	C89.997925,368.768127 88.427162,370.960693 79.654053,374.095947 
	C69.117859,376.683136 59.014187,379.494965 48.826565,381.959839 
	C38.692116,384.411835 28.912697,387.392120 20.888983,394.560272 
	C8.727690,405.424835 3.947350,419.244812 3.986239,435.165192 
	C4.039114,456.811462 3.930199,478.458466 4.083957,500.103760 
	C4.103952,502.918610 5.047341,505.804169 5.993237,508.506409 
	C6.569740,510.153290 7.969845,511.511902 9.000004,513.000000 
z"/>
<path fill="#EDF6FF" opacity="1.000000" stroke="none" 
	d="
M330.000000,513.000000 
	C281.645782,513.000000 233.291550,513.000000 184.674835,512.724731 
	C187.829971,510.539642 189.090942,507.612640 189.042694,503.736389 
	C188.916199,493.572174 189.029999,483.405273 188.988174,473.239685 
	C188.964767,467.551147 185.950882,463.962677 181.402420,464.029083 
	C176.844070,464.095673 174.028000,467.618774 174.007675,473.428619 
	C173.973846,483.094299 174.198486,492.766144 173.911301,502.423401 
	C173.773575,507.055450 175.154785,510.505554 179.000000,513.000000 
	C167.312439,513.000000 155.624878,513.000000 143.265656,512.729858 
	C137.543564,510.217133 135.833694,506.304352 135.865463,500.857635 
	C136.022842,473.877014 136.041534,446.894318 135.878311,419.913757 
	C135.822601,410.705048 136.158447,401.634583 139.560974,392.663055 
	C144.881165,385.620544 149.984390,378.797729 155.417084,371.883789 
	C163.281616,365.291199 172.486847,362.877350 181.983063,361.505737 
	C179.782883,372.634460 181.466019,382.921112 185.264786,393.305786 
	C177.425842,400.184784 173.042160,408.353699 174.403458,418.608795 
	C175.582306,427.489288 177.484970,436.279999 179.247025,445.074463 
	C180.310425,450.381989 183.691528,452.610840 189.056625,451.884094 
	C191.029694,451.616821 192.984665,451.205750 194.940369,450.821930 
	C200.273422,449.775360 203.020264,447.047363 202.993790,442.857178 
	C202.965759,438.417511 200.188812,435.970551 194.332474,435.179810 
	C193.883942,435.119232 193.465637,434.834747 192.885406,434.592621 
	C192.016068,430.196381 191.130325,425.807800 190.289673,421.410614 
	C190.040222,420.105682 189.867523,418.781189 189.745209,417.457733 
	C189.088867,410.356628 192.860397,405.178650 199.460144,404.078430 
	C205.447021,403.080383 211.080719,407.026978 212.583054,413.665894 
	C213.859848,419.308197 214.719269,425.044922 215.777740,430.818329 
	C215.027206,431.220581 214.464142,431.536316 213.889008,431.828339 
	C209.460236,434.076721 207.666428,437.509460 209.232010,441.483948 
	C210.863510,445.625793 214.106003,447.132202 218.468262,446.253632 
	C220.422287,445.860138 222.389938,445.534180 224.343994,445.140808 
	C230.927124,443.815430 233.029480,441.272369 231.985245,434.753357 
	C230.620071,426.230743 229.098434,417.710388 227.108749,409.315918 
	C224.065277,396.475647 213.860794,388.834534 200.436691,388.536041 
	C199.101608,384.417145 196.987335,380.657715 196.968094,376.887573 
	C196.934174,370.238129 198.178131,363.582214 199.099304,356.592773 
	C204.203720,355.100891 209.095932,353.945221 214.119629,353.110168 
	C219.716064,361.346405 226.449142,367.778625 235.368988,371.726898 
	C250.051041,378.225800 264.625397,379.063599 279.435364,371.057678 
	C280.496796,370.976471 281.204773,370.919403 282.155212,371.160339 
	C293.580963,374.308075 304.764313,377.157776 316.047363,380.257812 
	C316.235687,380.664490 316.324310,380.820801 316.325562,381.401428 
	C315.188812,386.816498 314.493500,391.918884 312.967255,396.759308 
	C311.927216,400.057709 309.725189,402.989716 307.715637,406.168274 
	C296.526367,414.596191 296.568115,427.199005 307.737427,434.522614 
	C315.958130,438.602844 323.981384,436.921570 328.947784,430.420166 
	C333.693481,424.207672 333.262207,415.644958 328.071869,409.251129 
	C327.168274,408.137970 326.232574,406.322418 326.510651,405.105164 
	C327.680542,399.984161 329.305298,394.967041 331.084045,390.057190 
	C341.948975,400.308929 347.736359,412.744385 347.902832,427.257874 
	C348.230621,455.835205 347.999756,484.418915 348.000000,513.000000 
	C343.975464,513.000000 339.950897,513.000000 335.670471,512.725586 
	C338.827942,510.538757 340.093872,507.616028 340.044830,503.737274 
	C339.916351,493.573029 340.031128,483.405945 339.989685,473.240265 
	C339.966461,467.545898 336.962585,463.966125 332.408997,464.028961 
	C327.843018,464.091980 325.029968,467.607849 325.009399,473.427002 
	C324.975250,483.092804 325.199646,492.764709 324.913391,502.422150 
	C324.776123,507.052826 326.157501,510.503632 330.000000,513.000000 
z"/>
<path fill="#DC8995" opacity="1.000000" stroke="none" 
	d="
M197.960815,158.191925 
	C181.494415,144.400345 171.464859,126.628319 168.240250,105.680809 
	C163.673492,76.014458 171.236099,49.663555 192.643082,27.781359 
	C205.073441,15.075041 219.614655,6.448809 237.091782,2.887623 
	C237.649353,2.774011 238.091797,2.095508 238.293961,1.340172 
	C239.388885,1.000000 240.777786,1.000000 242.635986,1.369063 
	C244.719666,2.434486 246.275162,3.358435 247.957123,3.793340 
	C276.914276,11.280881 297.395142,28.746498 309.038544,56.240154 
	C316.348450,73.501129 318.134949,91.455452 313.864532,109.853783 
	C310.062653,126.233322 302.200378,140.460327 290.533386,152.970535 
	C285.391998,153.104935 280.713440,153.179245 275.569031,153.174011 
	C260.105408,153.116333 245.105682,153.297913 230.110672,153.107147 
	C219.064117,152.966629 208.129944,153.018066 197.960815,158.191925 
M249.175278,73.462906 
	C249.175278,76.413002 249.175278,79.363091 249.175278,82.936043 
	C240.825485,82.936043 233.046799,82.860344 225.271545,82.989754 
	C223.350433,83.021729 220.569702,83.079468 219.709900,84.248009 
	C218.015991,86.550179 216.336960,89.732887 216.573914,92.379257 
	C216.916275,96.202713 220.271210,98.024551 224.250946,98.021362 
	C232.363510,98.014854 240.476074,98.019409 249.175125,98.019409 
	C249.175125,100.399239 249.174454,102.185150 249.175262,103.971054 
	C249.178040,110.132843 249.034042,116.299217 249.225830,122.455124 
	C249.417969,128.622086 252.910004,131.795105 258.278564,131.095428 
	C262.376160,130.561371 264.717804,127.422760 264.793304,121.885620 
	C264.899292,114.115944 264.820099,106.343735 264.820099,98.030350 
	C273.084076,98.030350 280.701904,98.057961 288.319489,98.021606 
	C294.414917,97.992516 298.018585,95.086456 297.946167,90.359734 
	C297.873352,85.606827 294.402435,82.957047 288.151276,82.940323 
	C280.545441,82.919968 272.939575,82.935478 264.811218,82.935478 
	C264.811218,74.310394 264.941711,66.351639 264.765472,58.399689 
	C264.647125,53.058582 261.506378,49.607403 257.200531,49.472977 
	C252.717789,49.333023 249.417267,52.919300 249.218552,58.488808 
	C249.052399,63.145962 249.178787,67.813553 249.175278,73.462906 
z"/>
<path fill="#BEE49D" opacity="1.000000" stroke="none" 
	d="
M9.468662,513.000000 
	C7.969845,511.511902 6.569740,510.153290 5.993237,508.506409 
	C5.047341,505.804169 4.103952,502.918610 4.083957,500.103760 
	C3.930199,478.458466 4.039114,456.811462 3.986239,435.165192 
	C3.947350,419.244812 8.727690,405.424835 20.888983,394.560272 
	C28.912697,387.392120 38.692116,384.411835 48.826565,381.959839 
	C59.014187,379.494965 69.117859,376.683136 79.696297,374.429749 
	C86.573959,385.509186 96.585228,391.254364 108.001503,395.443451 
	C106.994385,404.191559 105.265167,412.528381 105.143349,420.888611 
	C104.767876,446.657501 105.166313,472.437012 104.893784,498.208496 
	C104.825790,504.637360 106.629837,509.506866 112.000000,513.000000 
	C92.979103,513.000000 73.958214,513.000000 54.674461,512.722168 
	C55.906956,510.178986 58.571808,507.974426 58.693287,505.637665 
	C59.194096,496.004242 59.108856,486.325684 58.845219,476.674438 
	C58.738705,472.775208 54.118958,468.910095 50.772152,469.062622 
	C47.005966,469.234314 44.018570,472.853241 43.999439,477.391663 
	C43.966442,485.220215 44.213734,493.057831 43.905266,500.874359 
	C43.719254,505.587769 44.306454,509.738953 48.000000,513.000000 
	C35.312439,513.000000 22.624876,513.000000 9.468662,513.000000 
z"/>
<path fill="#BEE49D" opacity="1.000000" stroke="none" 
	d="
M460.000000,513.000000 
	C430.979095,513.000000 401.958221,513.000000 372.639404,512.706421 
	C376.799805,509.988953 378.179443,506.175140 378.157043,501.222168 
	C378.030090,473.143982 378.325653,445.061829 377.950928,416.988068 
	C377.844086,408.981079 375.981934,400.997498 375.313354,393.045837 
	C381.817352,394.074493 387.939941,395.879486 394.045990,395.825165 
	C400.663483,395.766327 407.265564,393.974762 414.289612,392.956177 
	C425.601868,395.739807 436.823730,397.642670 447.281036,401.577515 
	C454.187927,404.176422 460.973053,408.760834 466.085388,414.107849 
	C475.613892,424.073578 479.177429,436.792694 479.047394,450.641815 
	C478.852264,471.426178 478.998779,492.213776 479.000000,513.000000 
	C474.975464,513.000000 470.950897,513.000000 466.620361,512.685181 
	C467.545685,509.982788 469.731934,507.637360 469.839325,505.200317 
	C470.255066,495.765808 470.087891,486.300873 469.934174,476.850555 
	C469.907074,475.183563 469.394714,472.841949 468.245270,472.028076 
	C466.288727,470.642761 463.395599,469.146606 461.349792,469.627502 
	C457.423889,470.550354 455.031738,473.735779 455.013397,478.101318 
	C454.979279,486.227295 455.218964,494.361542 454.917114,502.476440 
	C454.745331,507.094910 456.207916,510.503265 460.000000,513.000000 
z"/>
<path fill="#A3D8A4" opacity="1.000000" stroke="none" 
	d="
M479.468658,513.000000 
	C478.998779,492.213776 478.852264,471.426178 479.047394,450.641815 
	C479.177429,436.792694 475.613892,424.073578 466.085388,414.107849 
	C460.973053,408.760834 454.187927,404.176422 447.281036,401.577515 
	C436.823730,397.642670 425.601868,395.739807 414.318909,392.724304 
	C413.932953,392.475037 413.978638,392.008728 414.305237,391.885834 
	C422.764923,387.736511 429.857239,382.566223 433.992859,374.146423 
	C448.351135,377.779480 462.996796,380.558075 476.993958,385.264954 
	C493.952118,390.967651 507.790558,405.075104 508.771149,424.695343 
	C510.061127,450.507690 509.730072,476.403198 509.957855,502.264221 
	C509.994965,506.474487 508.171082,510.057190 504.709595,512.695068 
	C496.645782,513.000000 488.291534,513.000000 479.468658,513.000000 
z"/>
<path fill="#D5717F" opacity="1.000000" stroke="none" 
	d="
M290.996277,152.910431 
	C302.200378,140.460327 310.062653,126.233322 313.864532,109.853783 
	C318.134949,91.455452 316.348450,73.501129 309.038544,56.240154 
	C297.395142,28.746498 276.914276,11.280881 247.957123,3.793340 
	C246.275162,3.358435 244.719666,2.434486 243.052658,1.369063 
	C253.687561,1.000000 264.375122,1.000000 275.531342,1.000001 
	C276.553040,1.660509 276.999969,2.753778 277.674438,2.919192 
	C305.616699,9.772335 325.917603,26.307886 338.369049,52.012192 
	C345.902161,67.563286 348.399933,84.098557 346.188904,101.577171 
	C343.324371,124.221497 333.390289,142.717682 315.995728,157.969894 
	C307.767883,153.764771 299.486389,152.845795 290.996277,152.910431 
z"/>
<path fill="#DDEBFD" opacity="1.000000" stroke="none" 
	d="
M374.924683,393.003204 
	C375.981934,400.997498 377.844086,408.981079 377.950928,416.988068 
	C378.325653,445.061829 378.030090,473.143982 378.157043,501.222168 
	C378.179443,506.175140 376.799805,509.988953 372.170715,512.706421 
	C364.312408,513.000000 356.624847,513.000000 348.468628,513.000000 
	C347.999756,484.418915 348.230621,455.835205 347.902832,427.257874 
	C347.736359,412.744385 341.948975,400.308929 331.139709,389.737579 
	C330.864929,388.844055 330.854980,388.415436 330.931702,387.574036 
	C331.343048,378.449524 331.667755,369.737762 332.404053,361.012634 
	C342.134399,363.196411 351.281860,365.803619 359.099487,372.230347 
	C364.465393,379.360901 369.695038,386.182068 374.924683,393.003204 
z"/>
<path fill="#A4D8A5" opacity="1.000000" stroke="none" 
	d="
M112.468658,513.000000 
	C106.629837,509.506866 104.825790,504.637360 104.893784,498.208496 
	C105.166313,472.437012 104.767876,446.657501 105.143349,420.888611 
	C105.265167,412.528381 106.994385,404.191559 108.421959,395.436707 
	C119.218544,397.156860 129.382095,396.451508 139.344025,392.882751 
	C136.158447,401.634583 135.822601,410.705048 135.878311,419.913757 
	C136.041534,446.894318 136.022842,473.877014 135.865463,500.857635 
	C135.833694,506.304352 137.543564,510.217133 142.796997,512.729858 
	C132.979111,513.000000 122.958214,513.000000 112.468658,513.000000 
z"/>
<path fill="#CDE2FF" opacity="1.000000" stroke="none" 
	d="
M179.416656,513.000000 
	C175.154785,510.505554 173.773575,507.055450 173.911301,502.423401 
	C174.198486,492.766144 173.973846,483.094299 174.007675,473.428619 
	C174.028000,467.618774 176.844070,464.095673 181.402420,464.029083 
	C185.950882,463.962677 188.964767,467.551147 188.988174,473.239685 
	C189.029999,483.405273 188.916199,493.572174 189.042694,503.736389 
	C189.090942,507.612640 187.829971,510.539642 184.206177,512.724731 
	C182.611115,513.000000 181.222214,513.000000 179.416656,513.000000 
z"/>
<path fill="#CDE2FF" opacity="1.000000" stroke="none" 
	d="
M330.416656,513.000000 
	C326.157501,510.503632 324.776123,507.052826 324.913391,502.422150 
	C325.199646,492.764709 324.975250,483.092804 325.009399,473.427002 
	C325.029968,467.607849 327.843018,464.091980 332.408997,464.028961 
	C336.962585,463.966125 339.966461,467.545898 339.989685,473.240265 
	C340.031128,483.405945 339.916351,493.573029 340.044830,503.737274 
	C340.093872,507.616028 338.827942,510.538757 335.207275,512.725586 
	C333.611115,513.000000 332.222198,513.000000 330.416656,513.000000 
z"/>
<path fill="#A3D8A4" opacity="1.000000" stroke="none" 
	d="
M460.428467,513.000000 
	C456.207916,510.503265 454.745331,507.094910 454.917114,502.476440 
	C455.218964,494.361542 454.979279,486.227295 455.013397,478.101318 
	C455.031738,473.735779 457.423889,470.550354 461.349792,469.627502 
	C463.395599,469.146606 466.288727,470.642761 468.245270,472.028076 
	C469.394714,472.841949 469.907074,475.183563 469.934174,476.850555 
	C470.087891,486.300873 470.255066,495.765808 469.839325,505.200317 
	C469.731934,507.637360 467.545685,509.982788 466.157166,512.685181 
	C464.285645,513.000000 462.571289,513.000000 460.428467,513.000000 
z"/>
<path fill="#A3D8A4" opacity="1.000000" stroke="none" 
	d="
M48.428463,513.000000 
	C44.306454,509.738953 43.719254,505.587769 43.905266,500.874359 
	C44.213734,493.057831 43.966442,485.220215 43.999439,477.391663 
	C44.018570,472.853241 47.005966,469.234314 50.772152,469.062622 
	C54.118958,468.910095 58.738705,472.775208 58.845219,476.674438 
	C59.108856,486.325684 59.194096,496.004242 58.693287,505.637665 
	C58.571808,507.974426 55.906956,510.178986 54.205803,512.722168 
	C52.285641,513.000000 50.571285,513.000000 48.428463,513.000000 
z"/>
<path fill="#4F6D8F" opacity="1.000000" stroke="none" 
	d="
M330.030701,201.890564 
	C334.092285,196.022156 337.659546,189.723175 342.318085,184.374741 
	C352.091003,173.154556 364.803375,166.619019 379.697144,163.600891 
	C381.746765,164.603394 383.285461,165.535141 384.950104,166.086777 
	C403.165863,172.123245 416.211914,183.931839 425.046600,200.903854 
	C431.669769,213.627457 432.567413,227.134583 431.664551,240.914413 
	C426.113190,236.520584 420.422638,232.653625 415.835754,227.753525 
	C412.313690,223.990936 409.994232,224.245041 405.695587,226.379166 
	C393.423401,232.471909 381.158325,239.041824 368.161926,243.078629 
	C355.970917,246.865311 342.849609,247.656937 330.058167,249.318420 
	C329.959045,242.313675 329.939392,235.757019 329.940674,228.719604 
	C329.984650,219.456070 330.007660,210.673309 330.030701,201.890564 
z"/>
<path fill="#D79B8C" opacity="1.000000" stroke="none" 
	d="
M433.631561,374.072632 
	C429.857239,382.566223 422.764923,387.736511 413.896637,391.880920 
	C409.767365,391.280182 406.344452,390.674469 402.985229,389.818695 
	C396.417969,388.145630 393.018158,383.656677 392.997375,376.851532 
	C392.982147,371.862823 392.999268,366.874084 392.992432,361.885345 
	C392.984070,355.797333 392.323975,355.693665 386.177399,354.872101 
	C379.316284,353.954987 372.590118,352.027802 365.805237,350.540253 
	C371.255188,348.900757 376.407562,348.752716 381.447144,347.920898 
	C391.850891,346.203674 401.812622,343.004944 410.142761,336.275116 
	C422.746155,326.092926 429.577728,312.547058 431.770660,296.667480 
	C432.203247,293.534760 431.324066,290.220856 431.161133,286.590515 
	C431.210327,279.797455 431.148254,273.404388 431.358826,266.696686 
	C431.816803,258.152893 432.002167,249.923752 432.548645,241.771698 
	C442.349243,246.437363 452.146942,249.588989 462.802216,249.300278 
	C462.872833,264.294678 463.876099,279.359619 462.749207,294.263458 
	C461.643982,308.880554 456.238373,322.511658 445.363007,332.964264 
	C439.401215,338.694275 432.452515,343.397705 425.945557,348.559906 
	C425.341858,349.038818 424.181366,349.485168 424.179138,349.950928 
	C424.152435,355.582031 423.306946,361.490845 424.777374,366.738190 
	C425.612335,369.717743 430.311401,371.614471 433.631561,374.072632 
z"/>
<path fill="#455E7E" opacity="1.000000" stroke="none" 
	d="
M462.874084,248.811432 
	C452.146942,249.588989 442.349243,246.437363 432.509399,241.595596 
	C432.109070,241.342422 432.000305,240.996689 432.000305,240.996689 
	C432.567413,227.134583 431.669769,213.627457 425.046600,200.903854 
	C416.211914,183.931839 403.165863,172.123245 384.950104,166.086777 
	C383.285461,165.535141 381.746765,164.603394 380.063965,163.508728 
	C388.348022,163.100403 396.717712,163.031509 405.756256,163.218323 
	C418.708679,166.155930 429.829285,171.300262 439.434174,179.632828 
	C447.360535,163.589142 440.522430,144.847321 423.885223,135.928772 
	C434.444733,129.248032 451.341553,131.168869 461.127899,139.517197 
	C469.102112,146.319687 473.868896,154.917877 473.831421,165.147385 
	C473.782959,178.353622 468.327637,189.244415 456.228638,195.948288 
	C455.666443,196.259796 455.111237,196.583878 454.150757,197.131195 
	C464.145630,213.047760 463.378479,230.712296 462.874084,248.811432 
z"/>
<path fill="#465E7E" opacity="1.000000" stroke="none" 
	d="
M330.021973,201.429977 
	C330.007660,210.673309 329.984650,219.456070 329.517456,228.650421 
	C318.511902,228.420288 308.435547,225.913025 298.961426,221.141846 
	C298.996338,221.059875 299.045624,220.888626 299.031860,220.427155 
	C299.011688,208.032318 299.144592,196.096771 298.955322,184.166321 
	C298.800049,174.380020 295.011932,166.203293 286.934753,160.375977 
	C283.418701,157.839325 279.675140,155.618057 276.034912,153.253555 
	C280.713440,153.179245 285.391998,153.104935 290.533386,152.970535 
	C299.486389,152.845795 307.767883,153.764771 315.699554,158.135010 
	C325.177399,164.822845 330.001923,173.674072 330.009735,185.027130 
	C330.013397,190.341217 330.012207,195.655304 330.021973,201.429977 
z"/>
<path fill="#4F6D8F" opacity="1.000000" stroke="none" 
	d="
M423.537476,135.972748 
	C440.522430,144.847321 447.360535,163.589142 439.434174,179.632828 
	C429.829285,171.300262 418.708679,166.155930 406.176758,163.186310 
	C406.402344,150.547684 413.163239,142.233749 423.537476,135.972748 
z"/>
<path fill="#FFDDCD" opacity="1.000000" stroke="none" 
	d="
M139.560974,392.663055 
	C129.382095,396.451508 119.218544,397.156860 108.435089,395.036133 
	C96.585228,391.254364 86.573959,385.509186 80.092026,374.502289 
	C88.427162,370.960693 89.997925,368.768127 89.997108,360.284576 
	C89.996758,356.628265 89.997055,352.971954 89.997055,349.677979 
	C69.705353,338.215057 55.119678,322.429840 52.300503,299.088654 
	C50.382401,283.207886 51.346912,266.978912 51.503273,250.429810 
	C53.780048,249.657120 55.565521,249.244308 57.373508,249.081436 
	C74.308517,247.556091 87.984581,239.833450 98.899086,227.054382 
	C101.410065,224.114456 103.634766,223.635468 107.029358,225.580826 
	C114.373413,229.789459 121.610283,234.441864 129.449539,237.463821 
	C138.971573,241.134476 149.068954,243.312607 158.942993,246.342789 
	C158.968567,246.549133 159.024963,246.961166 159.016327,247.433777 
	C158.901703,254.819901 158.795731,261.733398 158.450562,268.362366 
	C156.004456,264.185699 152.622406,262.857910 148.506256,264.270905 
	C144.647354,265.595551 143.625153,268.875519 143.759384,272.689484 
	C143.852768,275.342651 143.860336,278.005066 143.756546,280.657501 
	C143.603073,284.579559 144.325500,288.137268 148.417465,289.647705 
	C152.554382,291.174713 155.874725,289.668762 158.471207,286.333008 
	C157.514313,328.202698 134.000946,347.171600 93.144699,349.891602 
	C103.369797,354.283417 112.901512,356.477631 122.306236,355.613159 
	C131.697861,354.749908 140.854858,351.334045 150.063187,349.498871 
	C150.223038,357.640045 148.344269,365.801483 155.087616,371.974884 
	C149.984390,378.797729 144.881165,385.620544 139.560974,392.663055 
M117.254112,314.203400 
	C115.316391,313.801117 113.392204,313.308075 111.437958,313.016632 
	C108.012367,312.505768 105.559082,313.864929 104.462471,317.202759 
	C103.317711,320.687103 103.829453,324.146576 106.908012,326.169281 
	C114.921913,331.434723 126.935150,331.708832 134.327560,325.132812 
	C138.219742,321.670471 138.357269,317.459167 133.972336,314.815979 
	C131.540192,313.349976 127.841782,313.807739 124.707115,313.744293 
	C122.488571,313.699371 120.258278,314.234131 117.254112,314.203400 
M81.900085,276.531067 
	C81.924110,278.860229 81.743469,281.213684 82.016518,283.513275 
	C82.520645,287.759125 85.091316,290.072296 89.372910,290.114502 
	C93.684174,290.157043 96.437843,287.738495 96.851402,283.613159 
	C97.297195,279.166168 97.337463,274.595062 96.831703,270.160553 
	C96.363800,266.058014 93.520462,263.703735 89.202026,263.841309 
	C84.908760,263.978058 82.462685,266.346039 81.985085,270.598083 
	C81.800308,272.243225 81.919380,273.922455 81.900085,276.531067 
z"/>
<path fill="#506E8F" opacity="1.000000" stroke="none" 
	d="
M275.569031,153.174011 
	C279.675140,155.618057 283.418701,157.839325 286.934753,160.375977 
	C295.011932,166.203293 298.800049,174.380020 298.955322,184.166321 
	C299.144592,196.096771 299.011688,208.032318 298.684967,220.396591 
	C292.415344,216.082733 286.112671,211.719864 280.649384,206.481583 
	C275.582092,201.622971 275.536377,201.167709 269.431793,204.937164 
	C243.348038,221.043365 214.997696,229.120209 184.321655,228.451355 
	C184.177063,219.323029 184.027237,210.657379 183.877411,201.991714 
	C184.253815,193.602707 184.008392,185.125046 185.187805,176.850494 
	C186.288040,169.131439 190.934662,163.045105 197.786835,158.468491 
	C208.129944,153.018066 219.064117,152.966629 230.110672,153.107147 
	C245.105682,153.297913 260.105408,153.116333 275.569031,153.174011 
z"/>
<path fill="#F6DF7F" opacity="1.000000" stroke="none" 
	d="
M158.917419,246.136444 
	C149.068954,243.312607 138.971573,241.134476 129.449539,237.463821 
	C121.610283,234.441864 114.373413,229.789459 107.029358,225.580826 
	C103.634766,223.635468 101.410065,224.114456 98.899086,227.054382 
	C87.984581,239.833450 74.308517,247.556091 57.373508,249.081436 
	C55.565521,249.244308 53.780048,249.657120 51.571976,249.963989 
	C51.155834,235.726013 49.381721,221.318283 54.996517,207.578064 
	C56.333416,204.306503 57.656231,201.029190 59.391273,197.313812 
	C60.670658,195.904739 61.682198,195.028122 62.396744,193.953934 
	C70.031151,182.477173 79.924210,173.597733 92.677162,168.248260 
	C96.864281,166.491913 101.855225,163.867523 105.785690,164.744720 
	C127.924072,169.685501 143.401840,183.297592 153.072678,203.715088 
	C159.488190,217.259842 159.317734,231.673080 158.917419,246.136444 
z"/>
<path fill="#EFD06F" opacity="1.000000" stroke="none" 
	d="
M158.942993,246.342789 
	C159.317734,231.673080 159.488190,217.259842 153.072678,203.715088 
	C143.401840,183.297592 127.924072,169.685501 105.785690,164.744720 
	C101.855225,163.867523 96.864281,166.491913 92.677162,168.248260 
	C79.924210,173.597733 70.031151,182.477173 62.396744,193.953934 
	C61.682198,195.028122 60.670658,195.904739 59.469185,196.939606 
	C47.798073,191.031189 41.684525,181.240295 40.184170,168.908524 
	C39.183167,160.681046 41.589977,152.685730 46.628563,145.978058 
	C58.093334,130.715454 78.242844,127.448753 94.039398,138.004990 
	C101.874802,143.241104 107.289940,152.528412 108.392708,162.831757 
	C125.176430,160.134735 141.101547,163.009964 155.773880,171.435333 
	C168.086472,178.505661 177.317902,188.684860 183.558899,201.850708 
	C184.027237,210.657379 184.177063,219.323029 184.250504,228.917389 
	C184.131973,236.271530 184.089828,242.696976 183.580948,249.093018 
	C175.084457,248.362793 167.054718,247.661987 159.024963,246.961166 
	C159.024963,246.961166 158.968567,246.549133 158.942993,246.342789 
z"/>
<path fill="#FFDECF" opacity="1.000000" stroke="none" 
	d="
M184.047684,249.122437 
	C184.089828,242.696976 184.131973,236.271530 184.245270,229.380035 
	C214.997696,229.120209 243.348038,221.043365 269.431793,204.937164 
	C275.536377,201.167709 275.582092,201.622971 280.649384,206.481583 
	C286.112671,211.719864 292.415344,216.082733 298.698730,220.858063 
	C299.045624,220.888626 298.996338,221.059875 298.981750,221.566711 
	C299.836121,227.113693 300.409210,232.226898 301.632263,237.179581 
	C304.705200,249.623123 305.498383,262.255096 302.482147,274.603546 
	C295.378082,303.687286 277.160553,322.454834 248.030472,330.087952 
	C241.520767,331.793732 234.774750,332.597595 228.137527,333.816711 
	C234.144928,336.134796 240.334625,337.834381 246.579559,339.298370 
	C249.886963,340.073761 254.871017,339.319824 256.253540,341.271454 
	C258.013123,343.755310 256.574921,348.323730 257.071381,351.916656 
	C258.639252,363.263702 259.542389,366.097443 270.968323,368.844177 
	C273.694641,369.499573 276.378540,370.331207 279.081970,371.081787 
	C264.625397,379.063599 250.051041,378.225800 235.368988,371.726898 
	C226.449142,367.778625 219.716064,361.346405 214.284500,352.778259 
	C217.345428,350.446289 221.068649,349.391785 223.255844,346.957306 
	C227.822510,341.874298 226.845184,334.044128 221.570343,331.276489 
	C212.072311,326.293030 204.523544,319.164978 198.313950,310.656799 
	C194.771774,305.803436 192.102676,300.312897 189.027634,294.695923 
	C184.608322,279.531769 184.206924,264.340424 184.047684,249.122437 
M254.012039,295.839844 
	C253.399109,295.585693 252.788040,295.326935 252.172943,295.078125 
	C246.505630,292.785858 242.599716,294.058411 240.607040,298.844330 
	C238.917877,302.901306 240.782501,306.769928 245.989548,308.943420 
	C253.684570,312.155396 261.469482,312.230835 269.047699,308.449554 
	C273.475647,306.240173 275.004517,302.535950 273.324829,298.703918 
	C271.467194,294.465912 267.764343,293.076599 263.027771,294.465210 
	C260.386230,295.239594 257.588104,295.479736 254.012039,295.839844 
M281.900238,250.892273 
	C281.902435,254.542068 281.804077,258.195374 281.931519,261.840790 
	C282.100983,266.686798 285.326782,269.974396 289.598297,269.875214 
	C293.673187,269.780548 296.783508,266.593414 296.978088,262.027161 
	C297.133331,258.383850 297.082733,254.727478 297.003326,251.079498 
	C296.896393,246.165329 294.384827,243.170807 290.221588,242.807907 
	C285.678833,242.411926 283.119415,244.630203 281.900238,250.892273 
M219.930481,244.215317 
	C214.573669,249.507034 217.500412,256.185333 217.124451,262.236755 
	C216.846786,266.705963 220.518295,269.910858 224.605942,269.876709 
	C228.700119,269.842499 231.849380,266.672424 232.054504,262.109772 
	C232.210999,258.628754 231.813171,255.107086 232.161179,251.653824 
	C232.835251,244.964920 226.400375,240.521774 219.930481,244.215317 
z"/>
<path fill="#FFCDBE" opacity="1.000000" stroke="none" 
	d="
M279.435364,371.057678 
	C276.378540,370.331207 273.694641,369.499573 270.968323,368.844177 
	C259.542389,366.097443 258.639252,363.263702 257.071381,351.916656 
	C256.574921,348.323730 258.013123,343.755310 256.253540,341.271454 
	C254.871017,339.319824 249.886963,340.073761 246.579559,339.298370 
	C240.334625,337.834381 234.144928,336.134796 228.137527,333.816711 
	C234.774750,332.597595 241.520767,331.793732 248.030472,330.087952 
	C277.160553,322.454834 295.378082,303.687286 302.482147,274.603546 
	C305.498383,262.255096 304.705200,249.623123 301.632263,237.179581 
	C300.409210,232.226898 299.836121,227.113693 298.946808,221.648682 
	C308.435547,225.913025 318.511902,228.420288 329.496521,229.131195 
	C329.939392,235.757019 329.959045,242.313675 330.013000,249.804230 
	C329.697144,259.781769 329.750580,268.865509 328.856964,277.855133 
	C328.245758,284.003418 326.314484,290.020508 324.622009,296.172852 
	C317.544464,312.257111 306.341675,324.196930 291.097778,332.324463 
	C288.676758,333.615265 287.613098,335.017853 287.988983,337.675354 
	C288.921906,344.271149 289.399292,349.869690 299.918152,353.193756 
	C293.813293,359.287933 287.863037,365.075134 281.912781,370.862335 
	C281.204773,370.919403 280.496796,370.976471 279.435364,371.057678 
z"/>
<path fill="#000000" opacity="1.000000" stroke="none" 
	d="
M189.040436,295.109253 
	C192.102676,300.312897 194.771774,305.803436 198.313950,310.656799 
	C204.523544,319.164978 212.072311,326.293030 221.570343,331.276489 
	C226.845184,334.044128 227.822510,341.874298 223.255844,346.957306 
	C221.068649,349.391785 217.345428,350.446289 214.153015,352.457672 
	C209.095932,353.945221 204.203720,355.100891 198.710876,356.634186 
	C192.722549,358.370392 187.334808,359.728973 181.947083,361.087585 
	C172.486847,362.877350 163.281616,365.291199 155.417084,371.883789 
	C148.344269,365.801483 150.223038,357.640045 150.428619,349.478668 
	C160.330307,344.443542 168.410706,338.138458 174.778000,329.722534 
	C182.559692,319.437103 187.957916,308.159821 189.040436,295.109253 
z"/>
<path fill="#526F91" opacity="1.000000" stroke="none" 
	d="
M200.601059,388.890686 
	C213.860794,388.834534 224.065277,396.475647 227.108749,409.315918 
	C229.098434,417.710388 230.620071,426.230743 231.985245,434.753357 
	C233.029480,441.272369 230.927124,443.815430 224.343994,445.140808 
	C222.389938,445.534180 220.422287,445.860138 218.468262,446.253632 
	C214.106003,447.132202 210.863510,445.625793 209.232010,441.483948 
	C207.666428,437.509460 209.460236,434.076721 213.889008,431.828339 
	C214.464142,431.536316 215.027206,431.220581 215.777740,430.818329 
	C214.719269,425.044922 213.859848,419.308197 212.583054,413.665894 
	C211.080719,407.026978 205.447021,403.080383 199.460144,404.078430 
	C192.860397,405.178650 189.088867,410.356628 189.745209,417.457733 
	C189.867523,418.781189 190.040222,420.105682 190.289673,421.410614 
	C191.130325,425.807800 192.016068,430.196381 192.885406,434.592621 
	C193.465637,434.834747 193.883942,435.119232 194.332474,435.179810 
	C200.188812,435.970551 202.965759,438.417511 202.993790,442.857178 
	C203.020264,447.047363 200.273422,449.775360 194.940369,450.821930 
	C192.984665,451.205750 191.029694,451.616821 189.056625,451.884094 
	C183.691528,452.610840 180.310425,450.381989 179.247025,445.074463 
	C177.484970,436.279999 175.582306,427.489288 174.403458,418.608795 
	C173.042160,408.353699 177.425842,400.184784 185.603302,393.248230 
	C190.902786,391.531403 195.751923,390.211029 200.601059,388.890686 
z"/>
<path fill="#486080" opacity="1.000000" stroke="none" 
	d="
M330.845062,387.986816 
	C330.854980,388.415436 330.864929,388.844055 330.819214,389.592285 
	C329.305298,394.967041 327.680542,399.984161 326.510651,405.105164 
	C326.232574,406.322418 327.168274,408.137970 328.071869,409.251129 
	C333.262207,415.644958 333.693481,424.207672 328.947784,430.420166 
	C323.981384,436.921570 315.958130,438.602844 308.086060,434.374878 
	C314.832367,429.205719 317.709900,422.877930 314.699219,415.106140 
	C313.396851,411.744263 310.315826,409.071411 308.042755,406.085571 
	C309.725189,402.989716 311.927216,400.057709 312.967255,396.759308 
	C314.493500,391.918884 315.188812,386.816498 316.653442,381.461670 
	C321.660858,383.394012 326.252960,385.690399 330.845062,387.986816 
z"/>
<path fill="#DDEAFC" opacity="1.000000" stroke="none" 
	d="
M282.155212,371.160339 
	C287.863037,365.075134 293.813293,359.287933 300.328308,353.244385 
	C305.655151,354.298584 310.417206,355.609131 315.140381,357.346741 
	C315.383514,365.185028 315.665588,372.596252 315.947662,380.007446 
	C304.764313,377.157776 293.580963,374.308075 282.155212,371.160339 
z"/>
<path fill="#486180" opacity="1.000000" stroke="none" 
	d="
M200.436691,388.536041 
	C195.751923,390.211029 190.902786,391.531403 185.715149,392.909332 
	C181.466019,382.921112 179.782883,372.634460 181.983063,361.505737 
	C187.334808,359.728973 192.722549,358.370392 198.498688,356.970398 
	C198.178131,363.582214 196.934174,370.238129 196.968094,376.887573 
	C196.987335,380.657715 199.101608,384.417145 200.436691,388.536041 
z"/>
<path fill="#3F566F" opacity="1.000000" stroke="none" 
	d="
M316.047363,380.257812 
	C315.665588,372.596252 315.383514,365.185028 315.539978,357.344543 
	C321.316528,358.285492 326.654480,359.655762 331.992462,361.026062 
	C331.667755,369.737762 331.343048,378.449524 330.931702,387.574036 
	C326.252960,385.690399 321.660858,383.394012 316.740814,381.037354 
	C316.324310,380.820801 316.235687,380.664490 316.047363,380.257812 
z"/>
<path fill="#516F90" opacity="1.000000" stroke="none" 
	d="
M307.715637,406.168274 
	C310.315826,409.071411 313.396851,411.744263 314.699219,415.106140 
	C317.709900,422.877930 314.832367,429.205719 307.829834,434.086487 
	C296.568115,427.199005 296.526367,414.596191 307.715637,406.168274 
z"/>
<path fill="#FEFCFC" opacity="1.000000" stroke="none" 
	d="
M249.175446,72.969711 
	C249.178787,67.813553 249.052399,63.145962 249.218552,58.488808 
	C249.417267,52.919300 252.717789,49.333023 257.200531,49.472977 
	C261.506378,49.607403 264.647125,53.058582 264.765472,58.399689 
	C264.941711,66.351639 264.811218,74.310394 264.811218,82.935478 
	C272.939575,82.935478 280.545441,82.919968 288.151276,82.940323 
	C294.402435,82.957047 297.873352,85.606827 297.946167,90.359734 
	C298.018585,95.086456 294.414917,97.992516 288.319489,98.021606 
	C280.701904,98.057961 273.084076,98.030350 264.820099,98.030350 
	C264.820099,106.343735 264.899292,114.115944 264.793304,121.885620 
	C264.717804,127.422760 262.376160,130.561371 258.278564,131.095428 
	C252.910004,131.795105 249.417969,128.622086 249.225830,122.455124 
	C249.034042,116.299217 249.178040,110.132843 249.175262,103.971054 
	C249.174454,102.185150 249.175125,100.399239 249.175125,98.019409 
	C240.476074,98.019409 232.363510,98.014854 224.250946,98.021362 
	C220.271210,98.024551 216.916275,96.202713 216.573914,92.379257 
	C216.336960,89.732887 218.015991,86.550179 219.709900,84.248009 
	C220.569702,83.079468 223.350433,83.021729 225.271545,82.989754 
	C233.046799,82.860344 240.825485,82.936043 249.175278,82.936043 
	C249.175278,79.363091 249.175278,76.413002 249.175446,72.969711 
z"/>
<path fill="#E0AEA2" opacity="1.000000" stroke="none" 
	d="
M324.973389,296.096252 
	C326.314484,290.020508 328.245758,284.003418 328.856964,277.855133 
	C329.750580,268.865509 329.697144,259.781769 330.092499,250.252319 
	C342.849609,247.656937 355.970917,246.865311 368.161926,243.078629 
	C381.158325,239.041824 393.423401,232.471909 405.695587,226.379166 
	C409.994232,224.245041 412.313690,223.990936 415.835754,227.753525 
	C420.422638,232.653625 426.113190,236.520584 431.664551,240.914413 
	C432.000305,240.996689 432.109070,241.342422 432.148315,241.518524 
	C432.002167,249.923752 431.816803,258.152893 431.108368,266.427002 
	C428.023590,263.694580 424.783386,263.000519 421.488647,264.423737 
	C417.888947,265.978699 416.685913,269.185577 416.954163,273.062683 
	C417.125916,275.545563 417.119415,278.058868 416.954193,280.542694 
	C416.701630,284.340668 417.613342,287.616852 421.178986,289.389709 
	C424.989716,291.284424 428.251587,289.827728 431.049866,286.990509 
	C431.324066,290.220856 432.203247,293.534760 431.770660,296.667480 
	C429.577728,312.547058 422.746155,326.092926 410.142761,336.275116 
	C401.812622,343.004944 391.850891,346.203674 381.447144,347.920898 
	C376.407562,348.752716 371.255188,348.900757 365.805237,350.540253 
	C372.590118,352.027802 379.316284,353.954987 386.177399,354.872101 
	C392.323975,355.693665 392.984070,355.797333 392.992432,361.885345 
	C392.999268,366.874084 392.982147,371.862823 392.997375,376.851532 
	C393.018158,383.656677 396.417969,388.145630 402.985229,389.818695 
	C406.344452,390.674469 409.767365,391.280182 413.570068,392.003815 
	C413.978638,392.008728 413.932953,392.475037 413.903656,392.706909 
	C407.265564,393.974762 400.663483,395.766327 394.045990,395.825165 
	C387.939941,395.879486 381.817352,394.074493 375.313354,393.045837 
	C369.695038,386.182068 364.465393,379.360901 359.226410,371.904480 
	C365.972412,365.348541 363.618164,357.393158 363.863617,350.043976 
	C363.878448,349.600189 362.793152,349.038239 362.142639,348.666016 
	C353.642761,343.801605 345.652802,338.392365 339.736847,330.301392 
	C332.199188,319.992493 326.388916,309.012299 324.973389,296.096252 
M384.651611,312.990051 
	C380.500061,312.811523 377.979004,315.194641 377.149841,318.824768 
	C376.272583,322.665619 378.326324,325.206024 381.917572,327.062439 
	C389.779633,331.126526 397.532257,330.648193 405.325256,327.265991 
	C409.452850,325.474609 410.693359,321.965302 409.731812,317.808960 
	C408.769012,313.647186 405.521576,311.971191 401.779236,313.120605 
	C396.216309,314.829224 390.905884,314.961517 384.651611,312.990051 
M360.129822,264.126892 
	C358.653259,265.621613 356.056305,267.010712 355.903625,268.630219 
	C355.380676,274.177155 355.119293,279.892761 355.925537,285.372253 
	C356.496429,289.252533 360.236694,290.682373 364.158051,290.008179 
	C367.926453,289.360260 369.976410,286.915924 370.120453,283.097870 
	C370.252197,279.605377 370.233063,276.104004 370.177063,272.608246 
	C370.071350,266.005524 367.766144,263.883179 360.129822,264.126892 
z"/>
<path fill="#000000" opacity="1.000000" stroke="none" 
	d="
M324.622040,296.172852 
	C326.388916,309.012299 332.199188,319.992493 339.736847,330.301392 
	C345.652802,338.392365 353.642761,343.801605 362.142639,348.666016 
	C362.793152,349.038239 363.878448,349.600189 363.863617,350.043976 
	C363.618164,357.393158 365.972412,365.348541 359.090149,371.595032 
	C351.281860,365.803619 342.134399,363.196411 332.404053,361.012634 
	C326.654480,359.655762 321.316528,358.285492 315.578918,356.917419 
	C310.417206,355.609131 305.655151,354.298584 300.482910,352.937408 
	C289.399292,349.869690 288.921906,344.271149 287.988983,337.675354 
	C287.613098,335.017853 288.676758,333.615265 291.097778,332.324463 
	C306.341675,324.196930 317.544464,312.257111 324.622040,296.172852 
z"/>
<path fill="#475F7E" opacity="1.000000" stroke="none" 
	d="
M431.161133,286.590515 
	C428.251587,289.827728 424.989716,291.284424 421.178986,289.389709 
	C417.613342,287.616852 416.701630,284.340668 416.954193,280.542694 
	C417.119415,278.058868 417.125916,275.545563 416.954163,273.062683 
	C416.685913,269.185577 417.888947,265.978699 421.488647,264.423737 
	C424.783386,263.000519 428.023590,263.694580 430.835754,266.741638 
	C431.148254,273.404388 431.210327,279.797455 431.161133,286.590515 
z"/>
<path fill="#FFCDBE" opacity="1.000000" stroke="none" 
	d="
M189.027634,294.695923 
	C187.957916,308.159821 182.559692,319.437103 174.778000,329.722534 
	C168.410706,338.138458 160.330307,344.443542 150.480133,349.016998 
	C140.854858,351.334045 131.697861,354.749908 122.306236,355.613159 
	C112.901512,356.477631 103.369797,354.283417 93.144699,349.891602 
	C134.000946,347.171600 157.514313,328.202698 158.542953,285.929169 
	C158.485016,279.676819 158.587372,274.161835 158.689728,268.646881 
	C158.795731,261.733398 158.901703,254.819901 159.016327,247.433777 
	C167.054718,247.661987 175.084457,248.362793 183.580948,249.093018 
	C184.206924,264.340424 184.608322,279.531769 189.027634,294.695923 
z"/>
<path fill="#FFCDBE" opacity="1.000000" stroke="none" 
	d="
M117.643677,314.356750 
	C120.258278,314.234131 122.488571,313.699371 124.707115,313.744293 
	C127.841782,313.807739 131.540192,313.349976 133.972336,314.815979 
	C138.357269,317.459167 138.219742,321.670471 134.327560,325.132812 
	C126.935150,331.708832 114.921913,331.434723 106.908012,326.169281 
	C103.829453,324.146576 103.317711,320.687103 104.462471,317.202759 
	C105.559082,313.864929 108.012367,312.505768 111.437958,313.016632 
	C113.392204,313.308075 115.316391,313.801117 117.643677,314.356750 
z"/>
<path fill="#516E90" opacity="1.000000" stroke="none" 
	d="
M81.900055,276.058594 
	C81.919380,273.922455 81.800308,272.243225 81.985085,270.598083 
	C82.462685,266.346039 84.908760,263.978058 89.202026,263.841309 
	C93.520462,263.703735 96.363800,266.058014 96.831703,270.160553 
	C97.337463,274.595062 97.297195,279.166168 96.851402,283.613159 
	C96.437843,287.738495 93.684174,290.157043 89.372910,290.114502 
	C85.091316,290.072296 82.520645,287.759125 82.016518,283.513275 
	C81.743469,281.213684 81.924110,278.860229 81.900055,276.058594 
z"/>
<path fill="#526F90" opacity="1.000000" stroke="none" 
	d="
M158.450562,268.362366 
	C158.587372,274.161835 158.485016,279.676819 158.310898,285.595581 
	C155.874725,289.668762 152.554382,291.174713 148.417465,289.647705 
	C144.325500,288.137268 143.603073,284.579559 143.756546,280.657501 
	C143.860336,278.005066 143.852768,275.342651 143.759384,272.689484 
	C143.625153,268.875519 144.647354,265.595551 148.506256,264.270905 
	C152.622406,262.857910 156.004456,264.185699 158.450562,268.362366 
z"/>
<path fill="#FFCDBE" opacity="1.000000" stroke="none" 
	d="
M254.436279,295.900238 
	C257.588104,295.479736 260.386230,295.239594 263.027771,294.465210 
	C267.764343,293.076599 271.467194,294.465912 273.324829,298.703918 
	C275.004517,302.535950 273.475647,306.240173 269.047699,308.449554 
	C261.469482,312.230835 253.684570,312.155396 245.989548,308.943420 
	C240.782501,306.769928 238.917877,302.901306 240.607040,298.844330 
	C242.599716,294.058411 246.505630,292.785858 252.172943,295.078125 
	C252.788040,295.326935 253.399109,295.585693 254.436279,295.900238 
z"/>
<path fill="#526F90" opacity="1.000000" stroke="none" 
	d="
M281.911987,250.445984 
	C283.119415,244.630203 285.678833,242.411926 290.221588,242.807907 
	C294.384827,243.170807 296.896393,246.165329 297.003326,251.079498 
	C297.082733,254.727478 297.133331,258.383850 296.978088,262.027161 
	C296.783508,266.593414 293.673187,269.780548 289.598297,269.875214 
	C285.326782,269.974396 282.100983,266.686798 281.931519,261.840790 
	C281.804077,258.195374 281.902435,254.542068 281.911987,250.445984 
z"/>
<path fill="#526F90" opacity="1.000000" stroke="none" 
	d="
M220.274002,243.997192 
	C226.400375,240.521774 232.835251,244.964920 232.161179,251.653824 
	C231.813171,255.107086 232.210999,258.628754 232.054504,262.109772 
	C231.849380,266.672424 228.700119,269.842499 224.605942,269.876709 
	C220.518295,269.910858 216.846786,266.705963 217.124451,262.236755 
	C217.500412,256.185333 214.573669,249.507034 220.274002,243.997192 
z"/>
<path fill="#D79B8C" opacity="1.000000" stroke="none" 
	d="
M385.070435,312.990723 
	C390.905884,314.961517 396.216309,314.829224 401.779236,313.120605 
	C405.521576,311.971191 408.769012,313.647186 409.731812,317.808960 
	C410.693359,321.965302 409.452850,325.474609 405.325256,327.265991 
	C397.532257,330.648193 389.779633,331.126526 381.917572,327.062439 
	C378.326324,325.206024 376.272583,322.665619 377.149841,318.824768 
	C377.979004,315.194641 380.500061,312.811523 385.070435,312.990723 
z"/>
<path fill="#485F7F" opacity="1.000000" stroke="none" 
	d="
M360.531311,264.047424 
	C367.766144,263.883179 370.071350,266.005524 370.177063,272.608246 
	C370.233063,276.104004 370.252197,279.605377 370.120453,283.097870 
	C369.976410,286.915924 367.926453,289.360260 364.158051,290.008179 
	C360.236694,290.682373 356.496429,289.252533 355.925537,285.372253 
	C355.119293,279.892761 355.380676,274.177155 355.903625,268.630219 
	C356.056305,267.010712 358.653259,265.621613 360.531311,264.047424 
z"/>
</svg>