<svg version="1.1" id="Layer_1" xmlns="http://www.w3.org/2000/svg" xmlns:xlink="http://www.w3.org/1999/xlink" x="0px" y="0px"
	 width="100%" viewBox="0 0 512 512" enable-background="new 0 0 512 512" xml:space="preserve">
<path fill="#000000" opacity="1.000000" stroke="none" 
	d="
M239.468658,513.000000 
	C233.401855,510.057709 227.039322,509.687836 221.135468,507.666687 
	C205.356766,502.264893 191.451996,494.053558 178.845352,483.082977 
	C158.091873,465.022827 145.925095,442.178955 140.042160,415.777222 
	C138.362518,408.239288 137.898727,400.327881 137.754105,392.571381 
	C137.427979,375.080475 137.590668,357.579041 137.702911,340.082794 
	C137.723022,336.946930 136.913345,335.005188 134.033081,333.252014 
	C127.314705,329.162750 124.117729,322.647430 123.714905,314.929749 
	C123.411316,309.113190 123.551643,303.265900 123.689812,297.436920 
	C123.760956,294.435486 122.641487,293.241730 119.606995,293.312164 
	C113.777969,293.447479 107.942574,293.278412 102.111214,293.349609 
	C92.900909,293.462036 86.202187,289.266937 81.796600,281.391510 
	C80.453674,278.990875 78.824509,277.832916 76.123413,277.209869 
	C56.430889,272.667175 41.653950,253.931412 41.652443,233.761292 
	C41.648079,175.438171 41.820999,117.114243 41.549892,58.792381 
	C41.465378,40.611202 56.921795,22.709381 72.027145,17.759188 
	C75.431999,16.643381 77.728996,15.045326 79.285675,11.706052 
	C81.550224,6.848319 86.097908,4.143417 90.752686,1.220987 
	C102.020897,1.000000 113.041786,1.000000 124.531342,1.000000 
	C136.321121,5.039334 142.531860,13.819559 141.209869,25.407482 
	C140.126343,34.904972 134.106537,44.057198 121.691284,45.474678 
	C110.606354,46.740273 99.575645,47.761982 88.890022,43.335693 
	C84.259361,41.417538 81.482513,37.354275 78.125305,33.571693 
	C66.956467,37.980446 59.777821,45.899334 58.514259,57.744671 
	C56.413380,77.439507 57.218880,97.206131 58.113663,116.991592 
	C58.727573,130.566376 61.514732,143.388809 67.769241,155.242706 
	C82.107155,182.416733 104.748077,198.421967 135.043442,203.560074 
	C135.636185,203.660614 136.297089,203.359283 137.574799,203.128067 
	C135.698364,197.591919 133.837112,192.353394 132.145615,187.060623 
	C127.831696,173.562119 125.168930,159.686371 125.777557,145.544769 
	C126.687340,124.405907 132.664047,104.751465 148.422699,89.797493 
	C162.450500,76.485992 179.579681,69.512756 199.172592,68.572594 
	C216.586426,67.737000 232.852173,71.100449 247.849579,80.021515 
	C251.677322,82.298393 255.577759,84.704926 258.767426,87.759262 
	C272.950836,101.340851 287.162628,114.914650 300.791473,129.043701 
	C307.010834,135.491348 313.053711,142.139435 319.284393,148.600021 
	C323.748718,153.229111 324.066345,157.550354 320.574677,160.887680 
	C316.975250,164.327988 312.814331,164.066833 308.270844,159.587051 
	C291.301971,142.856079 274.304901,126.149681 257.587250,109.169373 
	C246.600357,98.009834 234.386887,89.360817 218.775238,85.897385 
	C194.249664,80.456406 166.780731,89.956367 153.525848,109.381790 
	C143.185989,124.535164 140.608673,141.663925 142.812759,159.552628 
	C146.584869,190.167923 161.027344,216.432205 177.511398,241.637848 
	C202.561111,279.941162 233.814880,312.971436 266.638092,344.596130 
	C274.336853,352.013794 282.823364,357.755188 293.891144,359.060425 
	C304.871948,360.355377 314.686066,357.724548 323.627380,351.533417 
	C330.489105,346.782166 330.418335,346.679962 338.721680,346.574158 
	C344.137482,356.321869 341.186798,359.619995 332.424011,365.606354 
	C308.376892,382.034454 278.465820,378.648956 257.641022,358.656555 
	C250.082199,351.399872 242.170624,344.477203 235.003098,336.853912 
	C222.953827,324.038391 210.520111,311.550201 199.624573,297.685089 
	C197.235077,294.644318 194.396179,292.960846 190.211838,293.248260 
	C184.738510,293.624207 179.216080,293.451538 173.721512,293.288239 
	C170.530182,293.193359 169.194122,294.302185 169.303635,297.611237 
	C169.485443,303.104553 169.176056,308.615082 169.389114,314.106110 
	C169.754166,323.513519 164.831207,329.863434 157.464172,334.531128 
	C155.122330,336.014954 154.287628,337.364380 154.299622,339.971222 
	C154.383957,358.302002 153.745941,376.658386 154.503403,394.958344 
	C155.529602,419.751099 164.269867,441.703430 180.725922,460.633423 
	C198.786667,481.409363 221.495560,493.558502 248.538681,496.393494 
	C276.386230,499.312775 301.919678,491.976593 324.145020,474.473206 
	C346.867218,456.578522 359.895325,433.229187 363.839447,404.557007 
	C364.917664,396.718781 364.263397,388.952148 364.658844,381.163116 
	C364.760406,379.162354 364.136993,377.757324 362.316467,376.626404 
	C354.041229,371.485931 349.874939,364.362518 350.534424,354.219543 
	C351.127869,345.091888 350.511353,335.891693 350.790771,326.734558 
	C350.906281,322.949921 349.453491,321.074310 346.122711,319.603912 
	C329.810913,312.402710 318.520447,300.376587 311.673584,283.878723 
	C296.114136,246.387573 321.132477,201.565811 361.333557,195.794556 
	C389.869537,191.697906 411.687531,202.506607 428.272766,226.029572 
	C435.173340,235.816711 437.693604,246.523193 438.042511,257.530273 
	C438.654205,276.827667 432.327637,293.925049 417.720215,307.470795 
	C412.045685,312.732910 406.119568,317.434662 398.908844,320.270416 
	C396.159424,321.351685 396.353119,323.410522 396.350433,325.569519 
	C396.338959,334.735077 396.385010,343.900940 396.326752,353.066162 
	C396.262817,363.124481 393.512482,371.810242 383.651306,376.576172 
	C380.867035,377.921814 381.272461,380.335999 381.371399,382.604095 
	C382.034485,397.806824 380.782684,412.812561 376.273499,427.391327 
	C369.187653,450.300629 356.688293,469.615601 338.165039,485.101929 
	C322.014313,498.604736 303.800690,507.460114 283.195282,511.532562 
	C282.584564,511.653259 282.049622,512.157288 281.239685,512.741333 
	C267.312439,513.000000 253.624878,513.000000 239.468658,513.000000 
M324.239441,248.804367 
	C315.971680,282.270477 345.374573,314.116241 379.658051,308.827271 
	C407.886566,304.472443 426.844513,276.574066 420.639374,249.459732 
	C414.186310,221.262451 384.354156,204.103867 357.664398,213.060226 
	C340.358826,218.867508 329.456818,230.599487 324.239441,248.804367 
M85.245354,254.773865 
	C90.137924,250.123947 95.784821,247.559036 102.708183,247.613144 
	C120.364998,247.751221 138.023636,247.687210 155.681305,247.631302 
	C157.385361,247.625916 159.318588,248.345963 160.930588,246.688858 
	C156.861145,239.604034 152.554764,232.702332 148.892410,225.474319 
	C147.114731,221.965897 144.624283,220.366013 141.129166,220.419647 
	C129.468002,220.598602 118.467232,217.803131 107.781273,213.467834 
	C91.847603,207.003540 78.062088,197.603256 66.896500,184.328201 
	C63.870949,180.731064 61.464405,176.604263 57.913486,172.955475 
	C57.638905,173.879120 57.391582,174.323746 57.391045,174.768661 
	C57.369270,192.759491 57.086864,210.756332 57.466736,228.739105 
	C57.720688,240.760666 62.045437,251.049622 72.870598,257.730835 
	C79.263268,261.676331 80.537315,261.501129 85.245354,254.773865 
M96.316338,267.750580 
	C94.727654,273.315369 96.801666,276.666534 102.460770,276.837463 
	C111.281509,277.103821 120.118240,276.830719 128.939850,277.080688 
	C137.257324,277.316376 140.057709,280.252014 140.149033,288.377411 
	C140.238861,296.371429 140.207581,304.367218 140.173996,312.362000 
	C140.156189,316.596558 141.148254,320.101929 146.121002,320.603027 
	C150.131699,321.007202 152.851135,318.092896 153.480453,312.858704 
	C153.658386,311.378632 153.576004,309.865021 153.579895,308.366699 
	C153.599762,300.704926 153.581390,293.042969 153.632034,285.381439 
	C153.661743,280.884796 155.970367,278.349274 160.400162,277.498932 
	C164.378326,276.735321 168.380157,277.250214 172.355469,276.961578 
	C175.515060,276.732208 178.858383,277.822784 182.341370,275.864319 
	C180.210754,272.874695 178.214066,270.237396 176.400620,267.479553 
	C174.770798,265.001007 172.625839,264.093353 169.672546,264.104401 
	C147.686279,264.186737 125.699570,264.162567 103.713020,264.148834 
	C100.930130,264.147095 98.388779,264.584442 96.316338,267.750580 
M366.324677,340.502960 
	C366.338440,345.151215 366.226318,349.804138 366.399109,354.446472 
	C366.596985,359.762054 369.127289,362.701447 373.126282,362.669281 
	C377.149078,362.636932 379.605988,359.618469 379.663055,354.361115 
	C379.740570,347.223419 379.692719,340.084351 379.693298,332.945862 
	C379.693909,325.288025 379.682129,325.524658 372.246674,325.239410 
	C367.784485,325.068207 365.727295,326.290497 366.278870,331.047882 
	C366.601685,333.832092 366.329559,336.685333 366.324677,340.502960 
M105.622192,16.367300 
	C103.793892,16.376436 101.960991,16.305771 100.138222,16.410904 
	C96.024078,16.648197 93.021751,18.473047 92.589569,22.846220 
	C92.224434,26.540983 95.545105,29.450039 100.311615,29.600687 
	C105.956940,29.779114 111.620003,29.812424 117.260941,29.571037 
	C121.210663,29.402021 124.466087,27.841534 124.681702,23.158897 
	C124.860558,19.274511 121.994568,16.681166 117.048218,16.419802 
	C113.567177,16.235863 110.069122,16.374016 105.622192,16.367300 
z"/>
<path fill="#000000" opacity="1.000000" stroke="none" 
	d="
M202.531342,1.000000 
	C209.766586,3.047208 214.717651,7.256139 217.143738,13.889858 
	C218.207260,16.797871 220.569656,17.384552 222.740891,18.315464 
	C239.321411,25.424360 249.245789,37.547787 251.423279,55.698883 
	C251.793152,58.782120 252.998260,61.703331 251.468277,64.913322 
	C249.653656,68.720505 246.738297,70.598495 242.789856,70.080788 
	C238.594711,69.530739 235.922653,66.880798 235.692474,62.405125 
	C235.315369,55.071777 232.934814,48.489700 228.361404,42.760189 
	C226.920258,40.954742 225.329834,39.176559 223.501556,37.789452 
	C218.272293,33.822010 217.750824,33.986557 213.210770,38.667652 
	C208.330780,43.699268 201.976852,45.806801 195.310272,46.134377 
	C188.059799,46.490650 180.754074,47.054192 173.471344,45.513832 
	C161.720078,43.028328 155.310165,36.964840 153.900620,24.995756 
	C153.024979,17.560341 155.646729,8.288532 166.238831,2.534156 
	C166.968567,2.137723 167.717987,1.777556 168.729126,1.200262 
	C180.020889,1.000000 191.041794,1.000000 202.531342,1.000000 
M171.300247,19.835379 
	C169.499420,25.596235 171.883408,29.370031 177.804764,29.603495 
	C183.430511,29.825304 189.075546,29.777452 194.705246,29.613214 
	C199.551605,29.471828 202.592545,26.781895 202.597198,23.060667 
	C202.601898,19.297998 199.608078,16.574577 194.771698,16.415823 
	C189.308945,16.236506 183.835251,16.354580 178.366806,16.400566 
	C175.791916,16.422216 173.465210,17.155209 171.300247,19.835379 
z"/>
<path fill="#000000" opacity="1.000000" stroke="none" 
	d="
M397.726868,100.827072 
	C401.298798,93.158203 408.805389,91.869125 416.067841,88.472504 
	C406.241882,84.730820 396.899506,83.575607 387.317627,84.650902 
	C370.078369,86.585518 355.608551,94.069916 343.712585,106.724960 
	C338.237976,112.548889 332.457336,118.087685 326.748138,123.687157 
	C324.731079,125.665482 322.641479,127.616150 320.359009,129.267044 
	C316.664825,131.939102 312.883453,130.907318 309.775848,128.312393 
	C306.780579,125.811234 307.212280,122.431511 308.944366,119.221283 
	C309.493866,118.202843 309.981476,117.065819 310.789093,116.284607 
	C323.666962,103.828133 335.094543,89.786896 350.586639,80.188400 
	C362.132874,73.034653 374.638092,69.294434 388.177734,68.630241 
	C403.197235,67.893463 417.632019,69.996674 431.230927,76.714996 
	C454.458313,88.190132 467.406738,107.177635 471.315979,132.425949 
	C474.971466,156.035110 470.706543,178.664932 461.607452,200.513519 
	C459.056427,206.639023 456.255920,212.662003 453.504761,218.702377 
	C450.854797,224.520645 446.298462,226.779297 441.722870,224.644424 
	C437.120483,222.497040 435.724060,217.498932 438.531769,211.824661 
	C445.500122,197.741989 451.278473,183.254959 454.482697,167.810745 
	C457.950562,151.096008 457.325409,134.724075 450.513336,118.869049 
	C449.558411,116.646469 448.854950,114.162079 446.551971,112.593498 
	C445.180328,114.604515 445.282104,116.699150 445.468567,118.858337 
	C445.711731,121.674690 446.113861,124.526939 445.904816,127.323166 
	C445.339783,134.881821 441.625580,140.360397 432.536316,142.560928 
	C418.356567,145.993866 403.679779,134.273087 399.980194,122.366394 
	C398.793854,118.548347 397.460388,114.774284 396.122467,111.005585 
	C394.859650,107.448502 395.052002,104.138222 397.726868,100.827072 
z"/>
<path fill="#000000" opacity="1.000000" stroke="none" 
	d="
M394.287476,236.684631 
	C412.737732,255.217239 404.193695,283.531097 381.894226,290.614777 
	C364.037323,296.287201 345.322296,285.498505 341.029602,267.180511 
	C336.866730,249.416473 348.620789,231.885208 366.717316,228.551163 
	C377.221863,226.615799 386.038452,229.934189 394.287476,236.684631 
M356.407227,257.123047 
	C356.366425,258.284180 356.262482,259.447083 356.295227,260.606140 
	C356.482758,267.247955 359.688080,272.118011 365.692261,274.640869 
	C371.739380,277.181793 377.865479,276.814514 382.922119,272.170319 
	C387.779938,267.708740 389.884277,262.197723 387.805206,255.534729 
	C385.645782,248.614151 379.969910,244.268890 372.644226,244.071152 
	C364.985199,243.864426 359.791931,247.812698 356.407227,257.123047 
z"/>
</svg>