<svg version="1.1" id="Layer_1" xmlns="http://www.w3.org/2000/svg" xmlns:xlink="http://www.w3.org/1999/xlink" x="0px" y="0px"
	 width="100%" viewBox="0 0 512 512" enable-background="new 0 0 512 512" xml:space="preserve">
<path fill="#53EDF5" opacity="1.000000" stroke="none" 
	d="
M235.000000,1.000000 
	C249.354233,1.000000 263.708466,1.000000 278.770569,1.345242 
	C292.130890,3.698121 304.904205,5.144006 317.409546,7.835035 
	C340.575012,12.820032 362.240295,21.868385 382.948273,33.401993 
	C410.908325,48.974747 434.726959,69.528252 455.148804,93.899040 
	C472.165039,114.205643 485.581451,136.876312 495.279694,161.640717 
	C503.046783,181.473755 508.714752,201.832626 511.060303,223.061722 
	C511.502472,227.063721 512.343140,231.021713 513.000000,235.000000 
	C513.000000,236.714355 513.000000,238.428711 512.705994,240.417206 
	C487.336914,215.658371 462.270569,190.616623 437.163055,165.616241 
	C435.788300,164.247299 434.070007,163.223312 432.357117,161.784760 
	C432.121735,161.349838 432.040802,161.168930 431.903564,160.759933 
	C431.646027,160.245071 431.371704,160.124527 430.556396,160.123154 
	C414.370880,160.018005 398.653381,159.959946 382.794495,159.609375 
	C367.151031,143.857712 351.648895,128.398590 336.076660,112.951820 
	C336.006561,112.964180 335.869202,113.001686 335.875610,112.746109 
	C335.588440,112.395302 335.294800,112.300064 334.535797,112.146210 
	C282.129059,112.087578 230.187744,112.087578 178.141068,112.087578 
	C178.141068,119.711990 178.141068,126.350578 178.078796,133.453812 
	C178.028397,142.650177 178.040237,151.381897 177.581299,160.150757 
	C145.517578,160.187912 113.924660,160.187912 82.109734,160.187912 
	C82.009109,162.466629 81.886955,163.944397 81.886757,165.422165 
	C81.877365,236.571701 81.870766,307.721252 81.924606,378.870758 
	C81.925903,380.587250 82.614441,382.303192 83.033859,384.357544 
	C84.467644,386.336121 85.738121,388.088257 87.248711,389.600616 
	C125.038002,427.433289 162.854477,465.238800 200.655945,503.059296 
	C202.182831,504.586975 203.610611,506.213684 204.675598,507.863831 
	C201.705429,507.388092 199.133514,506.888519 196.584732,506.290314 
	C173.512680,500.875732 151.773773,492.145966 131.065674,480.607361 
	C103.107597,465.028992 79.283272,444.479156 58.858456,420.108551 
	C41.839573,399.801880 28.423208,377.129089 18.722855,352.363708 
	C10.954072,332.529724 5.284739,312.169861 2.939754,290.939117 
	C2.497690,286.936829 1.656835,282.978577 1.000000,279.000000 
	C1.000000,264.645782 1.000000,250.291550 1.345232,235.229431 
	C3.698119,221.869080 5.144041,209.095764 7.835069,196.590363 
	C12.820024,173.424896 21.868433,151.759659 33.402012,131.051697 
	C48.974728,103.091637 69.528275,79.273033 93.899040,58.851177 
	C114.205635,41.834953 136.876297,28.418505 161.640732,18.720280 
	C181.473755,10.953282 201.832596,5.285236 223.061707,2.939742 
	C227.063736,2.497579 231.021698,1.656827 235.000000,1.000000 
z"/>
<path fill="#16C8F2" opacity="1.000000" stroke="none" 
	d="
M432.511597,162.038757 
	C434.070007,163.223312 435.788300,164.247299 437.163055,165.616241 
	C462.270569,190.616623 487.336914,215.658371 512.705994,240.845673 
	C513.000000,253.354233 513.000000,265.708466 512.644470,278.706360 
	C511.526062,284.190948 510.704071,289.023499 510.015564,293.875000 
	C509.185913,299.721008 509.110535,305.758148 507.569336,311.401367 
	C504.476837,322.724915 500.610046,333.837006 497.063965,345.036713 
	C495.768860,349.127167 494.947601,353.446777 493.095795,357.267090 
	C487.515503,368.779541 482.197174,380.499695 475.578522,391.412109 
	C459.591095,417.771027 439.036835,440.360779 414.831116,459.330200 
	C390.130859,478.687164 362.753143,493.474060 332.371918,501.864624 
	C318.414673,505.719299 304.033661,508.048218 289.828918,510.992218 
	C285.915314,511.803314 281.944550,512.338318 278.000000,513.000000 
	C263.979095,513.000000 249.958206,513.000000 235.262314,512.626953 
	C229.577637,511.834564 224.529434,511.670807 219.569214,510.923370 
	C214.694519,510.188751 209.909134,508.861450 205.084564,507.794250 
	C203.610611,506.213684 202.182831,504.586975 200.655945,503.059296 
	C162.854477,465.238800 125.038002,427.433289 87.248711,389.600616 
	C85.738121,388.088257 84.467644,386.336121 83.502327,384.305664 
	C105.694328,383.906616 127.469292,383.907684 149.244232,383.886353 
	C185.146133,383.851166 221.048019,383.801483 257.413849,383.850464 
	C315.905792,383.943054 373.933777,383.943054 432.368774,383.943054 
	C432.368774,381.077820 432.368774,378.930939 432.368774,376.784088 
	C432.368774,318.019073 432.360504,259.254059 432.375244,200.489044 
	C432.378479,187.672272 432.463989,174.855530 432.511597,162.038757 
z"/>
<path fill="#FFFFFF" opacity="1.000000" stroke="none" 
	d="
M278.468658,513.000000 
	C281.944550,512.338318 285.915314,511.803314 289.828918,510.992218 
	C304.033661,508.048218 318.414673,505.719299 332.371918,501.864624 
	C362.753143,493.474060 390.130859,478.687164 414.831116,459.330200 
	C439.036835,440.360779 459.591095,417.771027 475.578522,391.412109 
	C482.197174,380.499695 487.515503,368.779541 493.095795,357.267090 
	C494.947601,353.446777 495.768860,349.127167 497.063965,345.036713 
	C500.610046,333.837006 504.476837,322.724915 507.569336,311.401367 
	C509.110535,305.758148 509.185913,299.721008 510.015564,293.875000 
	C510.704071,289.023499 511.526062,284.190948 512.644470,279.174988 
	C513.000000,356.927185 513.000000,434.854370 513.000000,513.000000 
	C434.979248,513.000000 356.958282,513.000000 278.468658,513.000000 
z"/>
<path fill="#FFFFFF" opacity="1.000000" stroke="none" 
	d="
M234.531342,1.000000 
	C231.021698,1.656827 227.063736,2.497579 223.061707,2.939742 
	C201.832596,5.285236 181.473755,10.953282 161.640732,18.720280 
	C136.876297,28.418505 114.205635,41.834953 93.899040,58.851177 
	C69.528275,79.273033 48.974728,103.091637 33.402012,131.051697 
	C21.868433,151.759659 12.820024,173.424896 7.835069,196.590363 
	C5.144041,209.095764 3.698119,221.869080 1.345232,234.760773 
	C1.000000,157.072952 1.000000,79.145912 1.000000,1.000000 
	C78.687424,1.000000 156.375061,1.000000 234.531342,1.000000 
z"/>
<path fill="#FFFFFF" opacity="1.000000" stroke="none" 
	d="
M204.675598,507.863831 
	C209.909134,508.861450 214.694519,510.188751 219.569214,510.923370 
	C224.529434,511.670807 229.577637,511.834564 234.793655,512.626953 
	C157.072968,513.000000 79.145927,513.000000 1.000000,513.000000 
	C1.000000,435.312561 1.000000,357.624939 1.000000,279.468658 
	C1.656835,282.978577 2.497690,286.936829 2.939754,290.939117 
	C5.284739,312.169861 10.954072,332.529724 18.722855,352.363708 
	C28.423208,377.129089 41.839573,399.801880 58.858456,420.108551 
	C79.283272,444.479156 103.107597,465.028992 131.065674,480.607361 
	C151.773773,492.145966 173.512680,500.875732 196.584732,506.290314 
	C199.133514,506.888519 201.705429,507.388092 204.675598,507.863831 
z"/>
<path fill="#FFFFFF" opacity="1.000000" stroke="none" 
	d="
M513.000000,234.531342 
	C512.343140,231.021713 511.502472,227.063721 511.060303,223.061722 
	C508.714752,201.832626 503.046783,181.473755 495.279694,161.640717 
	C485.581451,136.876312 472.165039,114.205643 455.148804,93.899040 
	C434.726959,69.528252 410.908325,48.974747 382.948273,33.401993 
	C362.240295,21.868385 340.575012,12.820032 317.409546,7.835035 
	C304.904205,5.144006 292.130890,3.698121 279.239258,1.345242 
	C356.927032,1.000000 434.854095,1.000000 513.000000,1.000000 
	C513.000000,78.687424 513.000000,156.375061 513.000000,234.531342 
z"/>
<path fill="#FFFFFF" opacity="1.000000" stroke="none" 
	d="
M256.949921,383.757874 
	C221.048019,383.801483 185.146133,383.851166 149.244232,383.886353 
	C127.469292,383.907684 105.694328,383.906616 83.450912,383.967499 
	C82.614441,382.303192 81.925903,380.587250 81.924606,378.870758 
	C81.870766,307.721252 81.877365,236.571701 81.886757,165.422165 
	C81.886955,163.944397 82.009109,162.466629 82.109734,160.187912 
	C113.924660,160.187912 145.517578,160.187912 177.754395,160.240723 
	C178.398300,160.293533 178.776825,160.392502 179.159302,160.582855 
	C188.109329,160.665466 196.676865,160.557709 205.432999,160.398438 
	C205.621582,160.346924 205.939346,160.119125 206.410919,160.168365 
	C223.576492,160.262390 240.270462,160.307175 256.961304,160.798553 
	C256.960815,181.423401 256.963470,201.601669 256.557129,221.887726 
	C250.470428,222.514191 244.792709,223.032837 238.617935,223.596893 
	C238.617935,233.517136 238.617935,243.417770 238.617935,253.833405 
	C227.908539,253.833405 217.692322,253.833405 207.319733,253.833405 
	C207.319733,266.233398 207.319733,278.101288 207.319733,290.520020 
	C217.857178,290.520020 228.084778,290.520020 238.925827,290.520020 
	C238.925827,301.599060 238.925827,312.139862 238.925827,322.981842 
	C245.348068,322.981842 251.140457,322.981842 256.945251,323.451477 
	C256.955078,343.866699 256.952515,363.812286 256.949921,383.757874 
z"/>
<path fill="#DCE1EB" opacity="1.000000" stroke="none" 
	d="
M257.413849,383.850464 
	C256.952515,363.812286 256.955078,343.866699 256.980133,323.232300 
	C257.002594,322.543457 257.030304,322.101532 257.493774,322.057007 
	C263.607574,321.968842 269.257904,321.925262 275.182617,321.829468 
	C275.472321,321.442291 275.487701,321.107300 275.503754,320.318634 
	C275.505737,310.227173 275.507080,300.589386 275.703217,290.981689 
	C275.898010,291.011719 275.995605,290.629791 276.464325,290.629639 
	C286.568695,290.615295 296.204315,290.601074 306.097290,290.682373 
	C306.523285,290.492462 306.691925,290.207092 306.921875,289.461609 
	C306.983215,277.388794 306.983215,265.776184 306.983215,253.626495 
	C296.337250,253.626495 286.114136,253.626495 275.413330,253.626495 
	C275.413330,242.842651 275.413330,232.591415 275.413330,222.195236 
	C268.950378,222.195236 262.980896,222.195236 257.046021,222.086395 
	C257.080597,221.977554 256.966095,221.779922 256.966095,221.779922 
	C256.963470,201.601669 256.960815,181.423401 257.418488,160.679489 
	C274.579163,160.052597 291.279510,159.991364 308.432190,160.068054 
	C317.929657,160.114166 326.974823,160.022369 336.485474,159.971786 
	C352.279236,159.975967 367.607544,159.938934 382.935852,159.901886 
	C398.653381,159.959946 414.370880,160.018005 430.685822,160.287567 
	C431.477448,160.705429 431.703003,160.868408 431.959869,160.988007 
	C432.040802,161.168930 432.121735,161.349838 432.357117,161.784760 
	C432.463989,174.855530 432.378479,187.672272 432.375244,200.489044 
	C432.360504,259.254059 432.368774,318.019073 432.368774,376.784088 
	C432.368774,378.930939 432.368774,381.077820 432.368774,383.943054 
	C373.933777,383.943054 315.905792,383.943054 257.413849,383.850464 
z"/>
<path fill="#333940" opacity="1.000000" stroke="none" 
	d="
M336.020020,159.930573 
	C326.974823,160.022369 317.929657,160.114166 308.440369,159.604614 
	C307.996307,150.727097 307.996307,142.450958 307.996307,133.260132 
	C273.706421,133.260132 239.974304,133.260132 205.760986,133.208618 
	C196.233536,133.101120 187.187302,133.045135 178.141068,132.989166 
	C178.141068,126.350578 178.141068,119.711990 178.141068,112.087578 
	C230.187744,112.087578 282.129059,112.087578 334.652130,112.308105 
	C335.413269,112.729805 335.625061,112.887489 335.869202,113.001686 
	C335.869202,113.001686 336.006561,112.964180 336.017426,113.421707 
	C336.025543,129.229675 336.022766,144.580124 336.020020,159.930573 
z"/>
<path fill="#16C8F2" opacity="1.000000" stroke="none" 
	d="
M336.485474,159.971786 
	C336.022766,144.580124 336.025543,129.229675 336.087524,113.409348 
	C351.648895,128.398590 367.151031,143.857712 382.794495,159.609375 
	C367.607544,159.938934 352.279236,159.975967 336.485474,159.971786 
z"/>
<path fill="#555A66" opacity="1.000000" stroke="none" 
	d="
M178.078796,133.453812 
	C187.187302,133.045135 196.233536,133.101120 205.698135,133.653473 
	C206.057449,142.806274 205.998383,151.462692 205.939331,160.119125 
	C205.939346,160.119125 205.621582,160.346924 204.964676,160.248535 
	C195.797455,160.230942 187.287140,160.311722 178.776825,160.392487 
	C178.776825,160.392502 178.398300,160.293533 178.225189,160.203583 
	C178.040237,151.381897 178.028397,142.650177 178.078796,133.453812 
z"/>
<path fill="#D1E7F0" opacity="1.000000" stroke="none" 
	d="
M431.903564,160.759933 
	C431.703003,160.868408 431.477448,160.705429 431.153809,160.334671 
	C431.371704,160.124527 431.646027,160.245071 431.903564,160.759933 
z"/>
<path fill="#374E55" opacity="1.000000" stroke="none" 
	d="
M335.875610,112.746109 
	C335.625061,112.887489 335.413269,112.729805 335.117523,112.366737 
	C335.294800,112.300064 335.588440,112.395302 335.875610,112.746109 
z"/>
<path fill="#FF583E" opacity="1.000000" stroke="none" 
	d="
M257.030304,322.101532 
	C257.030304,322.101532 257.002594,322.543457 256.967712,322.762634 
	C251.140457,322.981842 245.348068,322.981842 238.925827,322.981842 
	C238.925827,312.139862 238.925827,301.599060 238.925827,290.520020 
	C228.084778,290.520020 217.857178,290.520020 207.319733,290.520020 
	C207.319733,278.101288 207.319733,266.233398 207.319733,253.833405 
	C217.692322,253.833405 227.908539,253.833405 238.617935,253.833405 
	C238.617935,243.417770 238.617935,233.517136 238.617935,223.596893 
	C244.792709,223.032837 250.470428,222.514191 256.557129,221.887726 
	C256.966095,221.779922 257.080597,221.977554 257.027893,222.542664 
	C256.993561,256.105713 257.011932,289.103607 257.030304,322.101532 
z"/>
<path fill="#16C8F2" opacity="1.000000" stroke="none" 
	d="
M206.410919,160.168365 
	C205.998383,151.462692 206.057449,142.806274 206.179352,133.704987 
	C239.974304,133.260132 273.706421,133.260132 307.996307,133.260132 
	C307.996307,142.450958 307.996307,150.727097 307.988098,159.466690 
	C291.279510,159.991364 274.579163,160.052597 257.421631,160.232895 
	C240.270462,160.307175 223.576492,160.262390 206.410919,160.168365 
z"/>
<path fill="#96BDC8" opacity="1.000000" stroke="none" 
	d="
M179.159302,160.582855 
	C187.287140,160.311722 195.797455,160.230942 204.776093,160.300049 
	C196.676865,160.557709 188.109329,160.665466 179.159302,160.582855 
z"/>
<path fill="#DB0404" opacity="1.000000" stroke="none" 
	d="
M257.493774,322.057007 
	C257.011932,289.103607 256.993561,256.105713 256.993317,222.651520 
	C262.980896,222.195236 268.950378,222.195236 275.413330,222.195236 
	C275.413330,232.591415 275.413330,242.842651 275.413330,253.626495 
	C286.114136,253.626495 296.337250,253.626495 306.983215,253.626495 
	C306.983215,265.776184 306.983215,277.388794 306.721008,289.528503 
	C306.151276,290.114746 305.945007,290.291840 305.839966,290.586884 
	C296.204315,290.601074 286.568695,290.615295 276.413147,290.456635 
	C275.671997,290.399658 275.450684,290.515533 275.229401,290.631439 
	C275.322418,290.738159 275.415436,290.844879 275.508423,290.951630 
	C275.507080,300.589386 275.505737,310.227173 275.336548,320.458252 
	C275.067047,321.323639 274.980225,321.600311 274.908264,321.881653 
	C269.257904,321.925262 263.607574,321.968842 257.493774,322.057007 
z"/>
<path fill="#E46663" opacity="1.000000" stroke="none" 
	d="
M306.097290,290.682373 
	C305.945007,290.291840 306.151276,290.114746 306.659668,289.988678 
	C306.691925,290.207092 306.523285,290.492462 306.097290,290.682373 
z"/>
<path fill="#E47674" opacity="1.000000" stroke="none" 
	d="
M275.182617,321.829468 
	C274.980225,321.600311 275.067047,321.323639 275.335876,320.911987 
	C275.487701,321.107300 275.472321,321.442291 275.182617,321.829468 
z"/>
<path fill="#E47674" opacity="1.000000" stroke="none" 
	d="
M275.703217,290.981689 
	C275.415436,290.844879 275.322418,290.738159 275.229401,290.631439 
	C275.450684,290.515533 275.671997,290.399658 275.944458,290.456787 
	C275.995605,290.629791 275.898010,291.011719 275.703217,290.981689 
z"/>
</svg>