<svg version="1.1" id="Layer_1" xmlns="http://www.w3.org/2000/svg" xmlns:xlink="http://www.w3.org/1999/xlink" x="0px" y="0px"
	 width="100%" viewBox="0 0 512 512" enable-background="new 0 0 512 512" xml:space="preserve">
<path fill="#000000" opacity="1.000000" stroke="none" 
	d="
M1.000000,184.000000 
	C1.000000,122.666664 1.000000,61.833332 1.000000,1.000000 
	C171.666672,1.000000 342.333344,1.000000 513.000000,1.000000 
	C513.000000,171.666672 513.000000,342.333344 513.000000,513.000000 
	C342.333344,513.000000 171.666672,513.000000 1.000000,513.000000 
	C1.000000,403.500000 1.000000,294.000000 1.000000,184.000000 
M376.091644,57.016155 
	C371.090454,56.983879 366.089294,56.951603 361.007507,55.995220 
	C361.007507,45.732677 361.007507,35.470131 361.007507,24.999773 
	C359.259827,24.999773 358.113922,24.999773 356.968048,24.999773 
	C282.145935,24.999775 207.323807,24.999029 132.501678,25.006670 
	C131.339355,25.006790 130.177017,25.110260 128.086807,25.015984 
	C115.155746,25.015984 102.224693,25.015984 88.999771,25.015984 
	C88.999771,86.636131 88.999771,147.735367 88.071259,208.970901 
	C76.413498,208.979446 64.734032,208.541809 53.103378,209.107498 
	C37.974396,209.843384 25.267937,221.939606 25.186132,236.777939 
	C24.773903,311.552704 24.769114,386.332214 25.187656,461.106873 
	C25.271454,476.077881 37.463314,487.987030 52.017239,488.752930 
	C70.611633,489.731445 89.301727,488.891510 108.886055,488.966461 
	C204.799103,488.977600 300.712158,488.992676 396.625214,488.965668 
	C398.215210,488.965240 399.809631,488.475952 401.394348,488.174561 
	C415.482880,485.495209 425.885712,471.658997 425.773895,456.632019 
	C430.509949,439.720856 435.303680,422.825531 439.967865,405.894592 
	C446.190643,383.305756 452.354156,360.700378 458.457092,338.078888 
	C460.787506,329.440857 462.880066,320.738708 465.738190,311.677155 
	C466.820435,307.933228 467.953888,304.203186 468.976532,300.443024 
	C475.031036,278.180878 480.355865,255.689117 487.305725,233.710846 
	C493.590912,213.834427 481.276245,193.651367 463.476807,187.042542 
	C453.564789,183.362244 443.192841,185.377441 432.078156,185.029449 
	C419.107513,185.019485 406.136871,185.009521 393.013794,184.071915 
	C393.013794,141.782501 393.013794,99.493088 393.013794,57.165604 
	C387.269623,57.165604 382.143066,57.165604 376.091644,57.016155 
z"/>
<path fill="#3896D2" opacity="1.000000" stroke="none" 
	d="
M425.140259,457.032471 
	C425.885712,471.658997 415.482880,485.495209 401.394348,488.174561 
	C399.809631,488.475952 398.215210,488.965240 396.625214,488.965668 
	C300.712158,488.992676 204.799103,488.977600 108.098923,488.743042 
	C90.196976,484.246063 81.005737,472.576996 81.003883,455.050842 
	C80.996407,384.253815 80.994255,313.456818 81.026535,242.659821 
	C81.027740,240.011749 81.115402,237.302567 81.657730,234.726059 
	C84.586624,220.811340 93.996300,213.200302 107.423538,209.084366 
	C114.945724,208.959793 122.000763,208.902435 129.517639,208.903900 
	C137.618042,209.001862 145.256638,209.041031 153.072662,209.362091 
	C165.493988,221.909988 177.700287,234.214096 190.037689,246.385315 
	C191.325470,247.655762 193.380844,248.853821 195.094330,248.874023 
	C207.420059,249.019257 219.749496,248.851486 232.536850,248.853546 
	C275.645477,248.897675 318.295013,248.871262 361.412720,248.896210 
	C366.938660,248.913116 371.996429,248.878632 377.514038,248.903046 
	C382.953400,248.967148 387.932831,248.972351 393.344421,248.983627 
	C399.008453,250.447723 404.752472,250.984619 409.368073,253.551010 
	C419.733948,259.314758 424.961761,268.746490 424.979767,280.719482 
	C425.068054,339.490417 425.092957,398.261475 425.140259,457.032471 
M192.958633,402.006531 
	C192.974243,416.247925 193.061783,430.489868 192.950134,444.730286 
	C192.925140,447.918091 193.905563,449.162842 197.192413,449.047974 
	C203.807922,448.816742 210.434219,448.894348 217.979767,448.962128 
	C230.882492,448.962128 243.785233,448.962128 257.151703,448.962128 
	C257.151703,432.631439 257.151703,417.059845 257.151703,400.843903 
	C273.312653,400.843903 289.007629,400.843903 304.688263,400.843903 
	C304.688263,379.292419 304.688263,358.397522 304.688263,336.850616 
	C288.694275,336.850616 272.999268,336.850616 256.846222,336.850616 
	C256.846222,320.629272 256.846222,305.057678 256.846222,289.155518 
	C243.266571,289.155518 230.161209,289.155518 216.116318,289.052429 
	C209.990997,289.035706 203.857483,289.204224 197.743439,288.933167 
	C194.051590,288.769501 192.887070,289.993011 192.925262,293.711548 
	C193.073166,308.111603 192.918884,322.514740 191.957169,336.979736 
	C184.323395,337.038330 176.689621,337.096924 168.116318,337.052399 
	C161.802673,337.036957 155.487228,337.104767 149.176208,336.968201 
	C146.363586,336.907349 144.937180,337.589294 144.955719,340.811279 
	C145.063782,359.586182 145.062515,378.362305 144.955734,397.137207 
	C144.937714,400.305939 146.254608,401.107117 149.124878,401.032593 
	C155.765747,400.860077 162.412003,400.894196 169.979706,400.962128 
	C177.612244,401.002533 185.244797,401.042969 192.958633,402.006531 
z"/>
<path fill="#E4EBF0" opacity="1.000000" stroke="none" 
	d="
M360.944519,248.844849 
	C318.295013,248.871262 275.645477,248.897675 232.423828,248.543518 
	C219.520004,235.629471 207.243790,223.040085 194.767548,210.652130 
	C193.568588,209.461670 191.129395,209.092529 189.259186,209.075287 
	C177.138901,208.963562 165.016754,209.055176 152.895218,209.080170 
	C145.256638,209.041031 137.618042,209.001862 129.504852,208.445587 
	C128.992310,197.579697 128.954407,187.230927 128.949219,176.422028 
	C128.990479,168.632339 128.915863,161.301437 129.033844,153.973633 
	C129.128693,148.080887 132.123367,145.204453 138.054337,145.015152 
	C139.718521,144.962036 141.386078,144.980164 143.051468,145.006256 
	C153.934692,145.176727 161.842926,140.513733 166.922318,130.791809 
	C167.567886,129.556213 169.753647,128.605682 171.309265,128.468460 
	C175.074463,128.136368 178.895309,128.237137 182.680206,128.429489 
	C184.074814,128.500366 186.258377,128.937408 186.680099,129.853104 
	C192.102310,141.626602 201.624451,145.541611 213.930176,145.071091 
	C222.436356,144.745850 224.973206,147.520874 224.993347,155.960770 
	C225.009857,162.879761 224.996719,169.798843 224.996719,176.660568 
	C230.736053,176.660568 235.649704,176.660568 240.832489,176.660568 
	C240.832489,167.529327 241.356613,158.696274 240.693985,149.953171 
	C239.940170,140.007004 232.407684,131.931793 222.546310,129.829712 
	C218.376068,128.940765 213.847763,129.721664 209.683914,128.816101 
	C206.909027,128.212616 203.387070,126.541206 202.226425,124.298683 
	C201.090317,122.103561 202.066162,118.437561 202.924408,115.667992 
	C204.625458,110.178688 207.838547,105.004425 208.668442,99.437828 
	C209.688644,92.594635 209.283447,85.459885 208.838577,78.493042 
	C207.762909,61.647812 193.251236,48.692749 176.270691,49.014107 
	C159.633850,49.328957 145.749603,62.790581 145.077087,79.442947 
	C144.841995,85.264137 144.251404,91.230835 145.207855,96.897362 
	C146.260513,103.133911 148.384796,109.344666 151.061142,115.092201 
	C152.595016,118.386284 154.140015,121.570190 151.922485,124.267036 
	C150.070740,126.519043 146.787308,128.231339 143.863449,128.820465 
	C139.025757,129.795212 133.967255,129.673965 129.001144,129.544952 
	C129.005234,94.438751 129.009964,59.802124 129.014694,25.165499 
	C130.177017,25.110260 131.339355,25.006790 132.501678,25.006670 
	C207.323807,24.999029 282.145935,24.999775 356.968048,24.999773 
	C358.113922,24.999773 359.259827,24.999773 361.007507,24.999773 
	C361.007507,35.470131 361.007507,45.732677 361.026611,56.928757 
	C361.011993,121.523148 360.978271,185.183990 360.944519,248.844849 
M283.500183,97.000931 
	C298.158752,97.000122 312.817474,97.042099 327.475769,96.978943 
	C333.987579,96.950890 336.927094,94.005630 336.977722,87.491364 
	C337.054077,77.664070 337.074310,67.834892 336.966919,58.008171 
	C336.902435,52.108589 333.878967,49.054813 327.981812,49.033028 
	C307.326904,48.956722 286.671295,48.956993 266.016388,49.032806 
	C260.110748,49.054482 257.092651,52.102421 257.031830,58.000404 
	C256.928833,67.993797 256.928040,77.989822 257.032562,87.983192 
	C257.094299,93.885643 260.111969,96.856506 266.009918,96.973518 
	C271.504730,97.082542 277.003387,96.999451 283.500183,97.000931 
M295.500000,209.000565 
	C282.766571,209.000565 270.033142,209.000565 257.336121,209.000565 
	C257.336121,214.729263 257.336121,219.639053 257.336121,224.593414 
	C284.011871,224.593414 310.350037,224.593414 336.664185,224.593414 
	C336.664185,219.271301 336.664185,214.361526 336.664185,209.000565 
	C323.055847,209.000565 309.777924,209.000565 295.500000,209.000565 
M282.500000,145.000580 
	C274.091431,145.000580 265.682892,145.000580 257.343170,145.000580 
	C257.343170,150.742767 257.343170,155.653061 257.343170,160.586395 
	C284.026184,160.586395 310.364441,160.586395 336.657104,160.586395 
	C336.657104,155.256226 336.657104,150.346603 336.657104,145.000580 
	C318.712250,145.000580 301.106140,145.000580 282.500000,145.000580 
M287.500000,177.000565 
	C277.428040,177.000565 267.356110,177.000565 257.340454,177.000565 
	C257.340454,182.738190 257.340454,187.647980 257.340454,192.589096 
	C284.020660,192.589096 310.358887,192.589096 336.659821,192.589096 
	C336.659821,187.261734 336.659821,182.352097 336.659821,177.000565 
	C320.382843,177.000565 304.441437,177.000565 287.500000,177.000565 
M260.735870,128.996460 
	C285.982544,128.996460 311.229187,128.996460 336.592407,128.996460 
	C336.592407,123.364334 336.592407,118.334442 336.592407,113.308952 
	C309.959320,113.308952 283.734436,113.308952 257.024231,113.308952 
	C257.024231,117.892899 256.869751,122.190773 257.149506,126.460182 
	C257.208191,127.356026 258.864899,128.147156 260.735870,128.996460 
z"/>
<path fill="#0E86D2" opacity="1.000000" stroke="none" 
	d="
M106.956383,209.151596 
	C93.996300,213.200302 84.586624,220.811340 81.657730,234.726059 
	C81.115402,237.302567 81.027740,240.011749 81.026535,242.659821 
	C80.994255,313.456818 80.996407,384.253815 81.003883,455.050842 
	C81.005737,472.576996 90.196976,484.246063 107.631180,488.677429 
	C89.301727,488.891510 70.611633,489.731445 52.017239,488.752930 
	C37.463314,487.987030 25.271454,476.077881 25.187656,461.106873 
	C24.769114,386.332214 24.773903,311.552704 25.186132,236.777939 
	C25.267937,221.939606 37.974396,209.843384 53.103378,209.107498 
	C64.734032,208.541809 76.413498,208.979446 88.999680,208.964539 
	C95.604187,209.022644 101.280289,209.087128 106.956383,209.151596 
z"/>
<path fill="#0E86D2" opacity="1.000000" stroke="none" 
	d="
M425.457092,456.832245 
	C425.092957,398.261475 425.068054,339.490417 424.979767,280.719482 
	C424.961761,268.746490 419.733948,259.314758 409.368073,253.551010 
	C404.752472,250.984619 399.008453,250.447723 393.379822,248.517685 
	C393.044128,227.030304 393.105164,206.014923 393.166229,184.999542 
	C406.136871,185.009521 419.107513,185.019485 432.541565,185.556000 
	C433.003784,204.897644 433.086823,223.713425 432.934906,242.527298 
	C432.901917,246.609253 433.761047,248.637878 438.357666,249.532150 
	C454.938751,252.757935 464.894989,265.254120 464.992798,282.096039 
	C465.050812,292.085785 465.053467,302.075836 465.081024,312.065765 
	C462.880066,320.738708 460.787506,329.440857 458.457092,338.078888 
	C452.354156,360.700378 446.190643,383.305756 439.967865,405.894592 
	C435.303680,422.825531 430.509949,439.720856 425.457092,456.832245 
z"/>
<path fill="#B4D7F0" opacity="1.000000" stroke="none" 
	d="
M107.423538,209.084366 
	C101.280289,209.087128 95.604187,209.022644 89.463928,208.896393 
	C88.999771,147.735367 88.999771,86.636131 88.999771,25.015984 
	C102.224693,25.015984 115.155746,25.015984 128.550751,25.090740 
	C129.009964,59.802124 129.005234,94.438751 128.739624,129.765778 
	C119.202072,134.658188 113.625977,141.650757 113.089493,151.960602 
	C112.726562,158.935181 113.104820,165.945358 112.957230,172.935501 
	C112.894928,175.886475 113.819023,177.207764 116.934509,177.039429 
	C120.919693,176.824066 124.921722,176.920212 128.916504,176.882141 
	C128.954407,187.230927 128.992310,197.579697 129.043015,208.386780 
	C122.000763,208.902435 114.945724,208.959793 107.423538,209.084366 
z"/>
<path fill="#3896D2" opacity="1.000000" stroke="none" 
	d="
M465.409607,311.871460 
	C465.053467,302.075836 465.050812,292.085785 464.992798,282.096039 
	C464.894989,265.254120 454.938751,252.757935 438.357666,249.532150 
	C433.761047,248.637878 432.901917,246.609253 432.934906,242.527298 
	C433.086823,223.713425 433.003784,204.897644 433.006287,185.624496 
	C443.192841,185.377441 453.564789,183.362244 463.476807,187.042542 
	C481.276245,193.651367 493.590912,213.834427 487.305725,233.710846 
	C480.355865,255.689117 475.031036,278.180878 468.976532,300.443024 
	C467.953888,304.203186 466.820435,307.933228 465.409607,311.871460 
z"/>
<path fill="#B4D7F0" opacity="1.000000" stroke="none" 
	d="
M361.412720,248.896210 
	C360.978271,185.183990 361.011993,121.523148 361.066895,57.390812 
	C366.089294,56.951603 371.090454,56.983879 376.550842,57.549194 
	C377.024750,121.669540 377.039459,185.256836 377.054169,248.844147 
	C371.996429,248.878632 366.938660,248.913116 361.412720,248.896210 
z"/>
<path fill="#E4EBF0" opacity="1.000000" stroke="none" 
	d="
M377.514038,248.903046 
	C377.039459,185.256836 377.024750,121.669540 377.013245,57.623917 
	C382.143066,57.165604 387.269623,57.165604 393.013794,57.165604 
	C393.013794,99.493088 393.013794,141.782501 393.090027,184.535736 
	C393.105164,206.014923 393.044128,227.030304 392.947693,248.511612 
	C387.932831,248.972351 382.953400,248.967148 377.514038,248.903046 
z"/>
<path fill="#E4EBF0" opacity="1.000000" stroke="none" 
	d="
M217.055847,289.155518 
	C230.161209,289.155518 243.266571,289.155518 256.846222,289.155518 
	C256.846222,305.057678 256.846222,320.629272 256.846222,336.850616 
	C272.999268,336.850616 288.694275,336.850616 304.688263,336.850616 
	C304.688263,358.397522 304.688263,379.292419 304.688263,400.843903 
	C289.007629,400.843903 273.312653,400.843903 257.151703,400.843903 
	C257.151703,417.059845 257.151703,432.631439 257.151703,448.962128 
	C243.785233,448.962128 230.882492,448.962128 217.505341,448.445038 
	C217.019592,434.170624 216.881104,420.411499 217.071152,406.656982 
	C217.131439,402.293457 215.563080,400.749542 211.271881,400.940247 
	C205.150330,401.212311 199.009781,401.056458 192.877335,401.083374 
	C185.244797,401.042969 177.612244,401.002533 169.505310,400.445038 
	C169.039215,379.003815 169.047531,358.079651 169.055847,337.155518 
	C176.689621,337.096924 184.323395,337.038330 192.893402,336.966797 
	C199.296478,336.969025 204.763367,337.005951 210.230133,336.993896 
	C216.868744,336.979248 216.977448,336.879395 216.994156,330.405731 
	C217.029633,316.655701 217.036972,302.905579 217.055847,289.155518 
z"/>
<path fill="#B4D7F0" opacity="1.000000" stroke="none" 
	d="
M153.072662,209.362076 
	C165.016754,209.055176 177.138901,208.963562 189.259186,209.075287 
	C191.129395,209.092529 193.568588,209.461670 194.767548,210.652130 
	C207.243790,223.040085 219.520004,235.629471 231.964722,248.472992 
	C219.749496,248.851486 207.420059,249.019257 195.094330,248.874023 
	C193.380844,248.853821 191.325470,247.655762 190.037689,246.385315 
	C177.700287,234.214096 165.493988,221.909988 153.072662,209.362076 
z"/>
<path fill="#B4D7F0" opacity="1.000000" stroke="none" 
	d="
M168.586075,337.103943 
	C169.047531,358.079651 169.039215,379.003815 169.043488,400.386230 
	C162.412003,400.894196 155.765747,400.860077 149.124878,401.032593 
	C146.254608,401.107117 144.937714,400.305939 144.955734,397.137207 
	C145.062515,378.362305 145.063782,359.586182 144.955719,340.811279 
	C144.937180,337.589294 146.363586,336.907349 149.176208,336.968201 
	C155.487228,337.104767 161.802673,337.036957 168.586075,337.103943 
z"/>
<path fill="#B4D7F0" opacity="1.000000" stroke="none" 
	d="
M216.586075,289.103973 
	C217.036972,302.905579 217.029633,316.655701 216.994156,330.405731 
	C216.977448,336.879395 216.868744,336.979248 210.230133,336.993896 
	C204.763367,337.005951 199.296478,336.969025 193.353394,336.935303 
	C192.918884,322.514740 193.073166,308.111603 192.925262,293.711548 
	C192.887070,289.993011 194.051590,288.769501 197.743439,288.933167 
	C203.857483,289.204224 209.990997,289.035706 216.586075,289.103973 
z"/>
<path fill="#B4D7F0" opacity="1.000000" stroke="none" 
	d="
M192.917984,401.544952 
	C199.009781,401.056458 205.150330,401.212311 211.271881,400.940247 
	C215.563080,400.749542 217.131439,402.293457 217.071152,406.656982 
	C216.881104,420.411499 217.019592,434.170624 217.043503,448.386230 
	C210.434219,448.894348 203.807922,448.816742 197.192413,449.047974 
	C193.905563,449.162842 192.925140,447.918091 192.950134,444.730286 
	C193.061783,430.489868 192.974243,416.247925 192.917984,401.544952 
z"/>
<path fill="#3997D2" opacity="1.000000" stroke="none" 
	d="
M128.949203,176.422028 
	C124.921722,176.920212 120.919693,176.824066 116.934509,177.039429 
	C113.819023,177.207764 112.894928,175.886475 112.957230,172.935501 
	C113.104820,165.945358 112.726562,158.935181 113.089493,151.960602 
	C113.625977,141.650757 119.202072,134.658188 128.740265,130.235352 
	C133.967255,129.673965 139.025757,129.795212 143.863449,128.820465 
	C146.787308,128.231339 150.070740,126.519043 151.922485,124.267036 
	C154.140015,121.570190 152.595016,118.386284 151.061142,115.092201 
	C148.384796,109.344666 146.260513,103.133911 145.207855,96.897362 
	C144.251404,91.230835 144.841995,85.264137 145.077087,79.442947 
	C145.749603,62.790581 159.633850,49.328957 176.270691,49.014107 
	C193.251236,48.692749 207.762909,61.647812 208.838577,78.493042 
	C209.283447,85.459885 209.688644,92.594635 208.668442,99.437828 
	C207.838547,105.004425 204.625458,110.178688 202.924408,115.667992 
	C202.066162,118.437561 201.090317,122.103561 202.226425,124.298683 
	C203.387070,126.541206 206.909027,128.212616 209.683914,128.816101 
	C213.847763,129.721664 218.376068,128.940765 222.546310,129.829712 
	C232.407684,131.931793 239.940170,140.007004 240.693985,149.953171 
	C241.356613,158.696274 240.832489,167.529327 240.832489,176.660568 
	C235.649704,176.660568 230.736053,176.660568 224.996719,176.660568 
	C224.996719,169.798843 225.009857,162.879761 224.993347,155.960770 
	C224.973206,147.520874 222.436356,144.745850 213.930176,145.071091 
	C201.624451,145.541611 192.102310,141.626602 186.680099,129.853104 
	C186.258377,128.937408 184.074814,128.500366 182.680206,128.429489 
	C178.895309,128.237137 175.074463,128.136368 171.309265,128.468460 
	C169.753647,128.605682 167.567886,129.556213 166.922318,130.791809 
	C161.842926,140.513733 153.934692,145.176727 143.051468,145.006256 
	C141.386078,144.980164 139.718521,144.962036 138.054337,145.015152 
	C132.123367,145.204453 129.128693,148.080887 129.033844,153.973633 
	C128.915863,161.301437 128.990479,168.632339 128.949203,176.422028 
M191.503616,103.673660 
	C191.995163,95.938499 192.893845,88.202072 192.869980,80.468506 
	C192.843201,71.792068 185.598083,65.082634 177.128616,65.013878 
	C168.416107,64.943138 161.355164,71.728920 161.043472,80.679344 
	C160.870117,85.657768 160.971146,90.647118 161.006744,95.631126 
	C161.067245,104.102684 165.213821,110.051933 172.560928,112.297020 
	C179.718704,114.484253 186.277374,111.682381 191.503616,103.673660 
z"/>
<path fill="#3996D2" opacity="1.000000" stroke="none" 
	d="
M283.000244,97.000931 
	C277.003387,96.999451 271.504730,97.082542 266.009918,96.973518 
	C260.111969,96.856506 257.094299,93.885643 257.032562,87.983192 
	C256.928040,77.989822 256.928833,67.993797 257.031830,58.000404 
	C257.092651,52.102421 260.110748,49.054482 266.016388,49.032806 
	C286.671295,48.956993 307.326904,48.956722 327.981812,49.033028 
	C333.878967,49.054813 336.902435,52.108589 336.966919,58.008171 
	C337.074310,67.834892 337.054077,77.664070 336.977722,87.491364 
	C336.927094,94.005630 333.987579,96.950890 327.475769,96.978943 
	C312.817474,97.042099 298.158752,97.000122 283.000244,97.000931 
M279.615875,80.998413 
	C293.331879,80.998413 307.047882,80.998413 320.633759,80.998413 
	C320.633759,75.207703 320.633759,70.300125 320.633759,65.444923 
	C304.587708,65.444923 288.910400,65.444923 273.372711,65.444923 
	C273.372711,70.803299 273.372711,75.710983 273.372711,80.998291 
	C275.378174,80.998291 277.014771,80.998291 279.615875,80.998413 
z"/>
<path fill="#3896D2" opacity="1.000000" stroke="none" 
	d="
M296.000000,209.000565 
	C309.777924,209.000565 323.055847,209.000565 336.664185,209.000565 
	C336.664185,214.361526 336.664185,219.271301 336.664185,224.593414 
	C310.350037,224.593414 284.011871,224.593414 257.336121,224.593414 
	C257.336121,219.639053 257.336121,214.729263 257.336121,209.000565 
	C270.033142,209.000565 282.766571,209.000565 296.000000,209.000565 
z"/>
<path fill="#3896D2" opacity="1.000000" stroke="none" 
	d="
M283.000000,145.000580 
	C301.106140,145.000580 318.712250,145.000580 336.657104,145.000580 
	C336.657104,150.346603 336.657104,155.256226 336.657104,160.586395 
	C310.364441,160.586395 284.026184,160.586395 257.343170,160.586395 
	C257.343170,155.653061 257.343170,150.742767 257.343170,145.000580 
	C265.682892,145.000580 274.091431,145.000580 283.000000,145.000580 
z"/>
<path fill="#3896D2" opacity="1.000000" stroke="none" 
	d="
M288.000000,177.000565 
	C304.441437,177.000565 320.382843,177.000565 336.659821,177.000565 
	C336.659821,182.352097 336.659821,187.261734 336.659821,192.589096 
	C310.358887,192.589096 284.020660,192.589096 257.340454,192.589096 
	C257.340454,187.647980 257.340454,182.738190 257.340454,177.000565 
	C267.356110,177.000565 277.428040,177.000565 288.000000,177.000565 
z"/>
<path fill="#3896D2" opacity="1.000000" stroke="none" 
	d="
M260.260559,128.991501 
	C258.864899,128.147156 257.208191,127.356026 257.149506,126.460182 
	C256.869751,122.190773 257.024231,117.892899 257.024231,113.308952 
	C283.734436,113.308952 309.959320,113.308952 336.592407,113.308952 
	C336.592407,118.334442 336.592407,123.364334 336.592407,128.996460 
	C311.229187,128.996460 285.982544,128.996460 260.260559,128.991501 
z"/>
<path fill="#E2EAF0" opacity="1.000000" stroke="none" 
	d="
M191.321960,104.016785 
	C186.277374,111.682381 179.718704,114.484253 172.560928,112.297020 
	C165.213821,110.051933 161.067245,104.102684 161.006744,95.631126 
	C160.971146,90.647118 160.870117,85.657768 161.043472,80.679344 
	C161.355164,71.728920 168.416107,64.943138 177.128616,65.013878 
	C185.598083,65.082634 192.843201,71.792068 192.869980,80.468506 
	C192.893845,88.202072 191.995163,95.938499 191.321960,104.016785 
z"/>
<path fill="#E4EBF0" opacity="1.000000" stroke="none" 
	d="
M279.133606,80.998352 
	C277.014771,80.998291 275.378174,80.998291 273.372711,80.998291 
	C273.372711,75.710983 273.372711,70.803299 273.372711,65.444923 
	C288.910400,65.444923 304.587708,65.444923 320.633759,65.444923 
	C320.633759,70.300125 320.633759,75.207703 320.633759,80.998413 
	C307.047882,80.998413 293.331879,80.998413 279.133606,80.998352 
z"/>
</svg>